<svg id="Layer_1" xmlns="http://www.w3.org/2000/svg" viewBox="0 0 1920 495.7" preserveAspectRatio="xMaxYMax"><style>.st0{fill:#faffff}.st1{fill:#518360}.st2{fill:#e9feff}.st3{fill:#89b636}.st4{fill:#FFF}.st5{fill:#0a606b}.st6{fill:#273654}.st7{fill:#bf0000}.st8{fill:#ffd56c}.st9{fill:#3c6b5f}.st10{fill:#bbecff}.st11{fill:#cee9ea}</style><path class="st0" d="M1042.5 316c-112.3-40.5-297.2-41.2-419.2-112.1-110.6-64.3-167.6-67.9-323.5-81C195.1 114.1 84.5 114.2 0 67.5v428.2h1281.7c-19.9-73.8-140.8-144.2-239.2-179.7z"/><path class="st0" d="M1549.4 184c-59.4 19.5-100 54.9-159.9 74.6-70.6 23.3-159.4 17.2-225.9 43.3-66.5 26-91.6 73.9-164.8 97.8-72 23.5-156.8 25.7-236.4 28.4-117.8 4-296.3 5.8-376.7 67.6H1920V128.5c-102.7 38-268.2 21.8-370.6 55.5z"/><path class="st1" d="M1920 308.6c-142.7 11.5-287.8 17.2-411.4 59.9-48.1 16.6-91.2 38.4-141.4 52.6-69.8 19.7-148.5 23.2-224.5 30.7-67.7 6.7-137.7 17.9-190 43.9H1920V308.6z"/><path class="st2" d="M1363 415c-59.8 16.9-122 28-187.5 33.8-13.3 16.5-13 34.3-13.4 46.9l51.9-27.1c51.6-25.8 80.1-19.9 148.5-22.5s71.1-27.9 115.3-37.1c39.5-8.2 85.8 23.8 132 9.8 46.1-13.9 110.1-105.1 131.4-37.6 10.6 33.5 24.4 26.1 29.5-11 6.7-48.8 111.1-59.2 116.4-20.4 4.5 32.8 23.7 39.1 32.9 25.5v-66.7c-142.7 11.5-289.4 11.2-413 53.9-48.2 16.6-93.8 38.3-144 52.5z"/><path class="st3" d="M1255 469.5c-83.1-26.5-88.5-51.6-159.6-78.4C970.5 344 818 338.5 697.9 317c-147.2-26.3-152.1-88.7-356.1-118C208.9 180 100.9 188.9 0 172.9v322.7h1422.5c-59.1-4.1-121-11.2-167.5-26.1z"/><path class="st2" d="M76.5 223.6s22.1-14.6 46.6-8.6 30.6 31.4 43.3 26c8.3-3.5 10-14.1 18.1-17.5 10.7-4.5 22.3 28.2 39.1 28.5s15.3-30.3 28-27c12.7 3.3 19.4 20.6 22.7 24.5 4 4.8 6.6 9.3 12 13 28.7 19.4 67.1 3.4 97.5 20 23 12.6 38.8 41.4 69.8 31.1 12.9-4.3 24.7-12.4 38.1-16.4 12-3.6 22.9-2.6 34.2 2.8 13.8 6.5 26.1 17.8 41.5 20.6 12.8 2.4 27.3 3.7 39.6-.5 14.3-4.9 29.9-11.5 40.3 3.5 5.8 8.5 6.6 19.6 13.1 27.6 18.8 23.2 41.8 7.5 60.1-5.3 16.7-11.6 33.5-15 48.8.4 10.6 10.7 4.4 34.6 28 36s37.7-23.1 53.4-24.6 40.2 14.3 72.1 21 89.4-13 90.4 20.2c.6 16.5 7.5 6.5 17.6-7.2 13.3-18 92.5 12.6 88.7 29.7-4.1 18.6 7.5 30.2 14.6 18.1 14.8-25.3 62.3 13.8 72.6 17.3s28.9 8.6 36.7 8.9c-58.1-22.7-84-53.4-143.8-76.6-1.2-.4-2.3-.9-3.5-1.3-124.9-47.1-277.9-52.5-398-74-147.2-26.3-151.3-90-355.3-119.3-132.9-19-241.8-6.6-342.7-22.6v58.4c.8.6 1.6 1.3 2.4 1.9 23.8 16.7 74-8.6 74-8.6z"/><path class="st4" d="M216.67 357.87l1.06-.563 6.388 12.006-1.06.564zM62.356 336.49l19.526-29.285.998.665-19.525 29.287zM61.228 294.31l6.4-12 1.06.565-6.4 12zM47.78 263.368l.763-.925 8.1 6.682-.764.926z"/><path class="st5" d="M82.9 83.2l7.9-7.1c-3-16.5-8.3-37.6-17.5-59-5.1 11.5-9.1 23.4-12.1 34.4l7.9 8.7-9.6-2.3c-5.3 21.9-7.1 40.2-7.1 47.5 0 11.5 9.3 23.8 20.8 23.8S94 116.9 94 105.4c0-4.4-.6-12.5-2.2-23.1l-8.9.9z"/><path class="st6" d="M85.6 99l-.6-1-10.4 6.4 1-65.3h-1.1l-.6 38-10-7.3-.7.9 10.6 7.8.1-.1-.1 6-12.1-8.8-.7 1 12.8 9.2-1 59.8H74l.5-39.9z"/><path class="st0" d="M58.7 55.1c-2.5.8-5 13.5-3 15.3 2.9 2.6 3.1-8.6 5.9-6.5 2.9 2.1 9.2 1.8 10.2-1 1-2.7-10.5-8.6-13.1-7.8M74.2 14.8c-2.5 0-5.7 7.5-6.8 13.9-.4 2.3 3.1 1.4 3.1-1 0-2 3.1-.3 3.1 9.3 0 16.5 5.3 15.3 5.3 10.5 0-11.6 3.7-5.2 3.7 6.1 0 4.8 2.2 16.2 6 16.2 3.7 0 2.2-11.4-2.2-26.7-4.5-15.4-9.7-28.3-12.2-28.3M92.6 81.2c-1.6-1.6-8.7-1.2-9.2 1-.8 3.2 3.1 1.2 5 3.2 2.6 2.6 1.9 8.7 3.4 10.3 1.8 1.7 3.6-11.7.8-14.5"/><path class="st7" d="M68.1 97.4c0 1.1-1 2-2.1 1.9-1.1 0-2-1-1.9-2.1 0-1.1 1-2 2.1-1.9 1.1 0 2 1 1.9 2.1"/><path class="st8" d="M83.5 111.7c0 1.1-1 2-2.1 1.9-1.1 0-2-1-1.9-2.1 0-1.1 1-2 2.1-1.9s2 1 1.9 2.1M70.1 44.4c0 1.1-1 2-2.1 1.9-1.1 0-2-1-1.9-2.1 0-1.1 1-2 2.1-1.9 1.1.1 2 1 1.9 2.1"/><path class="st6" d="M186.8 62.7c4.5-.8 7.6-2.1 7.6-3.8 0-1.9-6.7-14.9-12.7-25 3.9-.6 6.7-1.6 6.7-2.9 0-2.1-13.3-26.5-15.4-26.5-2.8 0-16.3 24.3-15.3 27.5.3.9 2.6 1.7 5.8 2-6.1 10.1-12.6 23.4-11.7 26.2.4 1.3 3.6 2.2 8.1 2.9-6.5 11.3-12.9 23.8-12.9 25.7 0 3.7 13.1 5.8 25.8 5.8 12.8 0 24.8-1.5 25.7-4.4 1.2-2.7-5-15.9-11.7-27.5"/><path class="st4" d="M180.1 53.9l-.6-.7-5.7 5.8V27.1h-.9v60.2l-6.6-6.6-.7.7 7.3 7.2V118h.9V60.3z"/><path class="st0" d="M172.8 1c-3.2 0-7.8 10.1-8.7 12.2s.7 4.5 4.8 2.1c2.8-1.6 6.9-1.3 6.9 2s3.3 6.7 5.2 5.4c1.9-1.4 2.2 6.4 6.3 6.4 4.2 0-9.2-28.1-14.5-28.1"/><path class="st9" d="M354.7 75c5.6-1 9.4-2.6 9.4-4.7 0-2.3-8.3-18.5-15.7-30.8 4.8-.7 8.3-1.9 8.3-3.6 0-2.6-16.4-32.8-19-32.8-3.4 0-20.2 30-18.9 33.9.3 1.1 3.2 2.1 7.1 2.5-7.6 12.5-15.6 28.9-14.4 32.3.5 1.6 4.5 2.8 10 3.6-7.9 14-15.8 29.5-15.8 31.7 0 4.6 16.2 7.2 31.9 7.2 15.8 0 30.6-1.8 31.7-5.4 1.4-3.3-6.3-19.6-14.6-33.9z"/><path class="st4" d="M346.4 64.1l-.8-.8-7 7.1V31h-1.1v74.4l-8.2-8.1-.8.8 9 8.9v29h1.1V72z"/><path class="st0" d="M338 0c-2.9 0-7.1 9.1-7.9 11s.6 4.1 4.4 1.9c2.5-1.5 6.2-1.1 6.2 1.8s2.9 6.1 4.7 4.8c1.8-1.3 2 5.8 5.7 5.8S342.8 0 338 0"/><path class="st10" d="M360.5 99.2c0 1.3-1.1 2.2-2.4 2.2s-2.2-1.1-2.2-2.4 1.1-2.2 2.4-2.2c1.3.1 2.2 1.2 2.2 2.4"/><path class="st7" d="M349.7 50.3c0 1.4-1.1 2.5-2.5 2.5s-2.5-1.1-2.5-2.5 1.1-2.5 2.5-2.5 2.5 1.1 2.5 2.5"/><path class="st8" d="M334.3 78.3c0 1.3-1.1 2.2-2.4 2.2s-2.2-1.1-2.2-2.4 1.1-2.2 2.4-2.2c1.2 0 2.2 1.1 2.2 2.4M329.6 30.6c0 1.4-1.2 2.4-2.6 2.4s-2.4-1.2-2.4-2.6 1.2-2.4 2.6-2.4c1.4.1 2.5 1.2 2.4 2.6"/><path class="st3" d="M291.3 95.8c5-1 8.4-2.4 8.4-4.1 0-2-7.4-16.5-14-27.5 4.3-.6 7.4-1.8 7.4-3.2 0-2.4-14.6-29.3-17-29.3-3.1 0-18 26.8-16.9 30.3.4 1.1 2.8 1.8 6.4 2.3-6.7 11-13.8 25.7-12.9 28.7.4 1.4 4 2.5 9 3.2-7.1 12.4-14.1 26.2-14.1 28.3 0 4 14.4 6.5 28.5 6.5s27.4-1.6 28.3-4.8c1.1-3.2-5.7-17.8-13.1-30.4"/><path class="st6" d="M283.8 80.5l-.8-.7-6.3 6.4V51h-1.1v66.2l-7.2-7.1-.7.7 7.9 7.9v32.6h1.1V87.7z"/><path class="st0" d="M275.8 31.7c-3.4 0-12.6 11.5-10.8 14.4 2.5 4.2 6.7-5.4 10.8-5.4 5.6 0 9.1 10.8 12.5 10.8 3.8 0-6.5-19.8-12.5-19.8"/><path class="st3" d="M612.3 171.3l8.1-7.3c-3-16.8-8.6-38.4-17.9-60.4-5.2 11.8-9.3 23.9-12.3 35.2l8.1 8.9-9.8-2.4c-5.4 22.4-7.3 41.2-7.3 48.6 0 11.8 9.5 24.3 21.2 24.3s21.2-12.5 21.2-24.3c0-4.5-.5-12.8-2.3-23.6l-9 1z"/><path class="st6" d="M614.2 192.6l-.6-1.1-10.7 6.5 1.1-66.7h-1.2l-.6 38.9-10.2-7.5-.7.9 10.8 7.9.1-.1-.1 6.2-12.3-8.9-.8.9 13.1 9.5-1 61.1h1.2l.6-40.8z"/><path class="st0" d="M605 97.4c-2.2 0-6.8 12.3-8.3 18.1-.7 2.6 3.6 1.7 3.6-1.2 0-2.4 3.5-.3 3.5 10.7 0 19.1 6.1 17.7 6.1 12.2 0-13.4 4.3-6 4.3 7.1 0 5.5 4.3 7 4.3 0 .1-16.2-11.2-46.9-13.5-46.9"/><path class="st5" d="M698.7 128.3c-2.8 0-28.9 90.7-26.3 93.8 2.6 3.1 13.4 7.2 25.9 7.2s23.6-5.9 24.5-8.3c.9-2.3-19.6-92.7-24.1-92.7"/><path class="st4" d="M708.4 199.9l-9.6 9.7v-52.2h-1.1v35.8l-9.6-9.6-.8.8 10.4 10.4v5.6l-9.6-9.6-.9.9 10.5 10.4v40.2h1.1v-31.1l10.5-10.4z"/><path class="st0" d="M698.2 125.3c2.3 0 5.1 6.7 6.1 12.5.4 2.1-2.8 1.3-2.8-.9 0-1.8-2.8-.2-2.8 8.4 0 14.9-4.8 13.8-4.8 9.5 0-10.4-3.4-4.7-3.4 5.5 0 7.4-3.6 14.6-6.9 14.6-3.4 0-.4-10.3 3.6-24.1 4.1-13.8 8.7-25.5 11-25.5"/><path class="st7" d="M687.1 205.9c0 1.3-1.1 2.4-2.4 2.4-1.3 0-2.4-1.1-2.4-2.4 0-1.3 1.1-2.4 2.4-2.4s2.4 1.1 2.4 2.4"/><path class="st10" d="M710.2 188.9c0 1.2-1.1 2.2-2.3 2.1-1.2 0-2.2-1.1-2.1-2.3 0-1.2 1.1-2.2 2.3-2.1 1.1.1 2.1 1.1 2.1 2.3"/><path class="st8" d="M707.9 163.8c0 1.2-1.1 2.2-2.3 2.1-1.2 0-2.2-1.1-2.1-2.3 0-1.2 1.1-2.2 2.3-2.1 1.2 0 2.2 1.1 2.1 2.3"/><path class="st9" d="M1298.1 229.9c5.1-.9 8.6-2.3 8.6-4.2 0-2.1-7.6-16.5-14.4-27.7 4.4-.6 7.6-1.7 7.6-3.1 0-2.3-15-29.4-17.5-29.4-3.2 0-18.6 27-17.4 30.5.4 1 3 1.9 6.6 2.2-6.9 11.2-14.3 25.9-13.2 29 .5 1.4 4.1 2.4 9.2 3.1-7.3 12.6-14.5 26.4-14.5 28.5 0 4.1 14.9 6.5 29.3 6.5 14.5 0 28.1-1.6 29.2-4.9 1-3-6-17.7-13.5-30.5z"/><path class="st4" d="M1290.3 220.2l-.7-.7-6.4 6.2v-35.3h-1.1v66.8l-7.4-7.4-.8.7 8.2 8v26.1h1.1v-57.3z"/><path class="st0" d="M1282.7 162.6c-2.6 0-6.4 8.1-7.3 9.9-.7 1.7.6 3.6 4.1 1.7 2.3-1.3 5.7-1 5.7 1.6 0 2.7 2.7 5.5 4.3 4.3 1.7-1.2 1.8 5.2 5.2 5.2 3.5.1-7.6-22.7-12-22.7"/><path class="st10" d="M1303.3 251.6c0 1.2-1.1 2-2.1 2-1.2 0-2-1-2-2.1s1.1-2 2.1-2c1.2 0 2 1 2 2.1"/><path class="st7" d="M1293.4 207.7c0 1.3-1.1 2.2-2.3 2.2-1.3 0-2.3-1-2.3-2.2 0-1.3 1.1-2.2 2.3-2.2 1.4 0 2.3.9 2.3 2.2"/><path class="st8" d="M1279.2 232.8c0 1.2-1.1 2-2.1 2-1.2 0-2-1-2-2.1 0-1.2 1.1-2 2.1-2 1.2.1 2 1 2 2.1M1275 190c0 1.3-1.1 2.2-2.4 2.1-1.3 0-2.3-1-2.1-2.3 0-1.3 1.1-2.2 2.4-2.1 1.1.1 2.1 1.1 2.1 2.3"/><path class="st6" d="M1457 107.8c-3 0-30.9 96.9-28.1 100.3 2.8 3.3 14.4 7.7 27.7 7.7s25.2-6.4 26.1-8.8c1-2.6-20.9-99.2-25.7-99.2"/><path class="st4" d="M1467.3 184.3l-10.2 10.3v-55.7h-1.2v38.2l-10.3-10.2-.8.9 11.1 11.1v5.9l-10.3-10.2-.9 1 11.2 11v43h1.2v-33.2l11.1-11.2z"/><path class="st0" d="M1456.4 104.6c2.4 0 5.5 7.2 6.6 13.4.4 2.2-3 1.4-3-1 0-2-2.9-.3-2.9 8.9 0 15.9-5.1 14.7-5.1 10.2 0-11.1-3.6-5-3.6 5.9 0 7.9-3.8 15.6-7.4 15.6s-.5-11 3.8-25.7c4.2-14.8 9.2-27.3 11.6-27.3"/><path class="st5" d="M1562.7 122.9l8.7-7.8c-3.3-18-9.1-41-19.1-64.4-5.6 12.6-9.9 25.5-13.2 37.6l8.7 9.5-10.5-2.6c-5.8 23.9-7.8 43.9-7.8 51.9 0 12.6 10.1 25.9 22.7 25.9s22.7-13.4 22.7-25.9c0-4.8-.6-13.7-2.5-25.2l-9.7 1z"/><path class="st6" d="M1565.6 140.2l-.6-1.2-11.4 7 1.2-71.3h-1.3l-.7 41.6-10.9-8-.7.9 11.5 8.5.1-.1-.1 6.6-13.2-9.6-.7 1 13.9 10.2-1 65.2h1.2l.6-43.6z"/><path class="st0" d="M1536.3 92.2c-2.8.9-5.5 14.7-3.3 16.7 3.1 2.9 3.3-9.4 6.5-7.1 3.1 2.3 10 2 11.1-1.1 1.1-3-11.6-9.4-14.3-8.5M1553.2 48.2c-2.7 0-6.2 8.1-7.4 15.1-.5 2.5 3.4 1.6 3.4-1.1 0-2.2 3.3-.3 3.3 10.1 0 18 5.8 16.7 5.8 11.5 0-12.6 4.1-5.7 4.1 6.7 0 5.2 2.4 17.6 6.5 17.7 4.1 0 2.5-12.5-2.4-29.2s-10.6-30.8-13.3-30.8M1573.3 120.7c-1.8-1.8-9.5-1.3-10 1.1-.8 3.5 3.3 1.4 5.4 3.5 2.9 2.9 2 9.5 3.8 11.3 1.8 1.8 3.9-12.9.8-15.9"/><path class="st9" d="M1884.1 93.6c5-.9 8.3-2.3 8.3-4.1 0-2-7.3-16.3-13.9-27.2 4.2-.6 7.3-1.7 7.3-3.1 0-2.3-14.5-28.9-16.8-28.9-3 0-17.8 26.5-16.7 29.9.3 1 2.8 1.8 6.3 2.2-6.7 11-13.8 25.5-12.7 28.5.4 1.4 3.9 2.4 8.8 3.1-7 12.3-14 26-14 28 0 4 14.3 6.4 28.1 6.4 14 0 27-1.6 28-4.8 1.4-3-5.4-17.4-12.7-30z"/><path class="st4" d="M1876.7 84l-.7-.7-6.1 6.3V54.8h-1v65.6l-7.2-7.2-.7.7 7.9 7.9v25.6h1V91z"/><path class="st0" d="M1869.4 27.4c-2.6 0-6.2 8.1-7 9.7-.7 1.7.6 3.6 3.8 1.7 2.2-1.3 5.5-1 5.5 1.6s2.6 5.4 4.1 4.3c1.6-1.1 1.7 5.1 5 5.1s-7.2-22.4-11.4-22.4"/><path class="st3" d="M1718.1 105.5c5.6-1.1 9.5-2.7 9.5-4.6 0-2.3-8.3-18.4-15.7-30.8 4.8-.7 8.3-2 8.3-3.5 0-2.7-16.4-32.8-19-32.8-3.4 0-20.2 30-18.9 33.9.4 1.2 3.2 2.1 7.2 2.6-7.6 12.5-15.6 29-14.5 32.3.5 1.6 4.4 2.8 10 3.5-8 13.9-15.8 29.4-15.8 31.7 0 4.5 16.2 7.3 31.9 7.3 15.8 0 30.6-1.8 31.7-5.4 1.2-3.6-6.5-20-14.7-34.2"/><path class="st6" d="M1709.7 88.5l-.9-.8-7.1 7.1V55.4h-1.2v74.2l-8.1-8-.7.8 8.8 8.8v36.5h1.2V96.5z"/><path class="st0" d="M1700.8 33.8c-3.8 0-14.1 12.9-12.1 16.2 2.8 4.7 7.5-6.1 12.1-6.1 6.3 0 10.2 12.1 14 12.1 4.2-.1-7.3-22.2-14-22.2"/><path class="st7" d="M1692.6 89.4c0 1.9-1.5 3.4-3.4 3.4s-3.4-1.5-3.4-3.4 1.5-3.4 3.4-3.4 3.4 1.5 3.4 3.4M1726.8 119.1c-.1 1.7-1.5 3.1-3.2 3s-3.1-1.5-3-3.2 1.5-3.1 3.3-3c1.6 0 3 1.5 2.9 3.2"/><path class="st8" d="M1689 133.7c-.1 1.7-1.5 3.1-3.3 3-1.7-.1-3.1-1.5-3-3.3.1-1.7 1.5-3.1 3.2-3 1.8.1 3.1 1.5 3.1 3.3M1712.8 62.2c-.1 1.7-1.5 3.1-3.3 3-1.7-.1-3.1-1.5-3-3.2s1.5-3.1 3.2-3c1.8 0 3.2 1.5 3.1 3.2"/><path class="st6" d="M43.5 291c-6-1.1-10.1-2.8-10.1-5.1 0-2.5 8.9-19.8 16.9-33.2-5.2-.7-8.9-2.1-8.9-3.8 0-2.8 17.6-35.3 20.5-35.3 3.7 0 21.7 32.3 20.3 36.5-.4 1.2-3.5 2.2-7.6 2.7 8.1 13.4 16.8 31.1 15.5 34.8-.5 1.7-4.8 3-10.7 3.8 8.5 15 17 31.7 17 34.1 0 4.9-17.4 7.8-34.3 7.8-17 0-32.9-2-34.1-5.8-1.6-3.6 6.6-21.1 15.5-36.5"/><path class="st11" d="M52.5 279.3l.8-.9 7.5 7.6v-42.4h1.3v80l8.7-8.7.9.9-9.6 9.6v26.4h-1.3v-64zM63.7 212.8c4.8 0 15.4 20.9 13.5 23.5-2.6 3.6-5.5-12.6-9.8-12.6-2.9 0-.9 10-5.4 10-2.5 0-3.1-6.7-5.1-4.6-4.3 4.5-7.6 11.6-10.9 11.6-5.1-.1 9.2-27.9 17.7-27.9"/><path class="st9" d="M182.6 169.2c-2.8 0-28.7 90-26.1 93.1 2.6 3.1 13.3 7.2 25.7 7.2s23.4-5.9 24.3-8.2c.8-2.4-19.5-92.1-23.9-92.1"/><path class="st11" d="M192.1 240.3l-9.4 9.5v-51.7h-1.2v35.5l-9.5-9.5-.7.8 10.2 10.3v5.5l-9.5-9.4-.8.8 10.3 10.3v39.9h1.2v-30.8l10.3-10.4zM183.9 165.3c-1.5 0-4.5 8.1-5.5 11.9-.5 1.7 2.3 1.1 2.3-.8 0-1.6 2.3-.2 2.3 7 0 12.5 4 11.6 4 8 0-8.8 2.8-3.9 2.8 4.7 0 3.6 2.9 4.6 2.9 0 .2-10.6-7.3-30.8-8.8-30.8"/><path class="st10" d="M178.6 214.9c0 1.1-.9 1.9-2 1.9s-1.9-.9-1.9-2 .9-1.9 2-1.9 2 .9 1.9 2"/><path class="st7" d="M191.5 229.3c0 1.1-.9 2.1-2.1 2.1-1.1 0-2.1-.9-2.1-2.1s.9-2.1 2.1-2.1c1.1 0 2.1 1 2.1 2.1"/><path class="st8" d="M175 255.7c0 1.1-.9 1.9-2 1.9s-1.9-.9-1.9-2 .9-1.9 2-1.9 1.9.9 1.9 2"/><path class="st5" d="M340.9 233c4.4-.9 7.4-2.1 7.4-3.6 0-1.8-6.5-14.5-12.3-24.1 3.8-.5 6.5-1.6 6.5-2.8 0-2.1-12.8-25.7-14.9-25.7-2.7 0-15.8 23.5-14.8 26.6.4 1 2.5 1.6 5.6 2-5.9 9.7-12.1 22.6-11.3 25.2.4 1.2 3.5 2.2 7.9 2.8-6.2 10.9-12.4 23-12.4 24.8 0 3.5 12.6 5.7 25 5.7s24.1-1.4 24.8-4.2c1-2.8-5-15.7-11.5-26.7"/><path class="st6" d="M334.3 219.5l-.7-.6-5.5 5.6v-30.9h-1v58.2l-6.3-6.3-.6.6 6.9 7v28.6h1v-55.8z"/><path class="st11" d="M327.3 176.7c-3 0-11.1 10.1-9.5 12.6 2.2 3.7 5.9-4.7 9.5-4.7 4.9 0 8 9.5 11 9.5 3.3 0-5.7-17.4-11-17.4"/><path class="st3" d="M374.8 245.4c-5.9 10-11.3 21.6-10.4 24.1.7 2.5 11.3 3.8 22.5 3.8s22.6-2 22.6-5.2c0-1.7-5.6-12.6-11.2-22.5 4-.6 6.8-1.4 7.1-2.5.7-2.4-4.9-14.1-10.2-22.8 2.9-.4 4.8-1 5.1-1.8.9-2.8-11-24.1-13.4-24.1-1.9 0-13.5 21.4-13.5 23.3 0 1.1 2.5 2.1 5.9 2.5-5.2 8.7-11.1 20.3-11.1 21.8s2.7 2.6 6.6 3.4"/><path class="st6" d="M386.4 239v50.5h.9v-25.9l6.3-6.3-.6-.5-5.7 5.6v-52.6h-.9v28l-5-5.1-.6.6z"/><path class="st11" d="M387.2 194.5c-4.8 0-12.9 15.7-9.9 15.7 2.7 0 5.5-8.6 9.9-8.6 3.3 0 6.6 7.6 8.6 4.3 1.4-2.3-5.9-11.4-8.6-11.4"/><path class="st9" d="M98.9 364.6c-4.2 0-23.4 85-22.6 87.2.9 2.2 11.3 7.8 23 7.8s21.9-3.9 24.3-6.8c2.5-3-22.1-88.2-24.7-88.2"/><path class="st6" d="M89 432.7l9.8 9.8v29.2h1.1v-37.8l9.8-9.8-.8-.7-9 8.9v-5.2l9.7-9.8-.7-.7-9 9v-33.7h-1.1v49l-8.9-9z"/><path class="st11" d="M97.6 360.9c-1.4 0-8.5 19.1-8.3 29.2 0 4.4 2.7 3.4 2.7 0 0-8.1 2.7-12.8 2.7-4.5 0 3.4 3.8 4.3 3.8-7.6 0-6.8 2.2-8.1 2.2-6.6 0 1.8 2.7 2.4 2.2.8-1-3.7-3.8-11.3-5.3-11.3"/><path class="st5" d="M201.6 356.7c-1.8 10.8-2.3 19.1-2.3 23.6 0 11.8 9.5 24.3 21.2 24.3s21.2-12.5 21.2-24.3c0-7.4-1.9-26.2-7.3-48.6l-9.8 2.4 8.1-8.9c-3-11.3-7.1-23.4-12.3-35.2-9.3 22-14.9 43.6-17.9 60.4l8.1 7.3-9-1z"/><path class="st6" d="M220 385.8l.6 40.8h1.2l-1-61.1 13.1-9.5-.8-.9-12.3 8.9-.1-6.2.1.1 10.8-7.9-.7-.9-10.2 7.5-.6-38.9h-1.2l1.1 66.7-10.7-6.5-.6 1.1z"/><path class="st11" d="M217.9 283.8c-2.3 0-13.6 30.7-13.5 46.9 0 7 4.3 5.5 4.3 0 0-13.1 4.3-20.5 4.3-7.1 0 5.5 6.1 6.9 6.1-12.2 0-11 3.5-13.1 3.5-10.7 0 2.9 4.3 3.8 3.6 1.2-1.5-5.8-6.1-18.1-8.3-18.1"/><path class="st6" d="M320.7 349.2c-4.4 0-24.7 89.7-23.9 92.1.9 2.3 11.9 8.2 24.3 8.2s23.1-4.1 25.7-7.2c2.6-3.1-23.3-93.1-26.1-93.1"/><path class="st11" d="M310.3 421.1l10.3 10.4v30.8h1.2v-39.9l10.3-10.3-.8-.8-9.5 9.4v-5.5l10.2-10.3-.7-.8-9.5 9.5v-35.5h-1.2v51.7l-9.4-9.5zM319.4 345.3c-1.5 0-9 20.2-8.8 30.8 0 4.6 2.9 3.6 2.9 0 0-8.6 2.8-13.5 2.8-4.7 0 3.6 4 4.5 4-8 0-7.2 2.3-8.6 2.3-7 0 1.9 2.8 2.5 2.3.8-1-3.8-4-11.9-5.5-11.9"/><path class="st5" d="M447 396.3c-1.6 10.6-2.2 18.7-2.2 23.1 0 11.5 9.3 23.8 20.8 23.8s20.8-12.3 20.8-23.8c0-7.3-1.8-25.6-7.1-47.5l-9.6 2.3 7.9-8.7c-3-11-7-22.9-12.1-34.4-9.2 21.4-14.5 42.5-17.5 59l7.9 7.1-8.9-.9z"/><path class="st6" d="M464.3 419.7l.5 39.9h1.2l-1-59.8 12.8-9.2-.7-1-12.1 8.8-.1-6 .1.1 10.6-7.8-.7-.9-10 7.3-.6-38h-1.1l1 65.3-10.4-6.4-.6 1z"/><path class="st11" d="M480.1 369.1c-2.6-.8-14.1 5.1-13.1 7.8 1 2.8 7.3 3.1 10.2 1 2.8-2.1 3 9.1 5.9 6.5 2-1.8-.5-14.5-3-15.3M464.6 328.8c-2.5 0-7.7 12.9-12.2 28.3-4.4 15.3-5.9 26.7-2.2 26.7 3.8 0 6-11.4 6-16.2 0-11.3 3.7-17.7 3.7-6.1 0 4.8 5.3 6 5.3-10.5 0-9.6 3.1-11.3 3.1-9.3 0 2.4 3.5 3.3 3.1 1-1.1-6.4-4.3-13.9-6.8-13.9M446.2 395.2c-2.8 2.8-1 16.2.8 14.5 1.5-1.6.8-7.7 3.4-10.3 1.9-2 5.8 0 5-3.2-.5-2.2-7.6-2.6-9.2-1"/><path class="st7" d="M470.7 411.4c-.1-1.1.8-2.1 1.9-2.1 1.1-.1 2.1.8 2.1 1.9.1 1.1-.8 2.1-1.9 2.1-1.1.1-2.1-.8-2.1-1.9"/><path class="st8" d="M455.3 425.7c-.1-1.1.8-2 1.9-2.1s2.1.8 2.1 1.9c.1 1.1-.8 2.1-1.9 2.1-1.1.1-2.1-.8-2.1-1.9M468.7 358.4c-.1-1.1.8-2 1.9-2.1s2.1.8 2.1 1.9c.1 1.1-.8 2.1-1.9 2.1-1.1.1-2.1-.8-2.1-1.9"/><path class="st9" d="M571.1 367.8c.9 2.9 12.8 4.4 25.6 4.4 12.7 0 25.7-2.1 25.7-5.8 0-1.8-6.4-14.3-12.7-25.6 4.4-.6 7.7-1.6 8.1-2.9 1-2.7-5.5-16-11.6-26.1 3.1-.3 5.5-1.1 5.7-2 1-3.1-12.5-27.3-15.2-27.3-2.1 0-15.3 24.4-15.3 26.5 0 1.4 2.8 2.3 6.7 2.9-6 9.9-12.7 23-12.7 24.8 0 1.7 3.1 3 7.6 3.8-6.8 11.5-13 24.7-11.9 27.3z"/><path class="st11" d="M595.9 338.1v51.6h.9v-23.4l7.2-7.2-.6-.6-6.6 6.5v-60h-.9v31.8l-5.6-5.7-.7.6zM596.4 280c-3.9 0-13.6 20.4-10.6 20.4s3.1-5.7 4.6-4.7 3.8-1.5 3.8-3.9c0-2.3 3-2.7 5-1.5 3.1 1.8 4.2 0 3.5-1.5-.6-1.5-4-8.8-6.3-8.8"/><path class="st10" d="M578.2 360c0-1 .7-1.9 1.8-1.9 1 0 1.9.7 1.9 1.8 0 1-.7 1.9-1.8 1.9s-1.9-.7-1.9-1.8"/><path class="st7" d="M586.9 320.6c0-1.1.9-2 2-2s2 .9 2 2-.9 2-2 2-2-.9-2-2"/><path class="st8" d="M599.4 343.2c0-1 .8-1.9 1.8-1.9s1.9.7 1.9 1.8c0 1-.7 1.9-1.8 1.9s-1.9-.8-1.9-1.8M603.2 304.7c-.1-1.1.8-2 1.9-2.1 1.1 0 2.1.8 2.1 1.9s-.8 2.1-1.9 2.1-2.1-.8-2.1-1.9"/><path class="st6" d="M637.3 417.8c-7.2 12.3-13.9 26.6-12.8 29.8.9 3.1 13.9 4.7 27.7 4.7s27.9-2.4 27.9-6.4c0-2.1-6.9-15.6-13.8-27.7 4.9-.7 8.4-1.8 8.8-3.1.9-2.9-6.1-17.3-12.6-28.1 3.5-.5 5.9-1.2 6.3-2.3 1.1-3.4-13.5-29.7-16.5-29.7-2.3 0-16.6 26.3-16.6 28.7 0 1.4 3 2.5 7.2 3.1-6.5 10.8-13.7 25-13.7 26.9-.1 1.7 3.2 3.1 8.1 4.1"/><path class="st11" d="M651.6 409.8v62.3h1.1v-31.9l7.7-7.7-.7-.7-7 6.9v-64.8h-1.1v34.5l-6.2-6.3-.7.7zM652.5 355c-5.9 0-16 19.4-12.2 19.4 3.3 0 6.8-10.6 12.2-10.6 4 0 8.1 9.4 10.6 5.3 1.7-2.8-7.3-14.1-10.6-14.1"/><path class="st5" d="M1308.4 359.4c-2.7 0-27.2 85.3-24.7 88.2 2.5 2.9 12.6 6.8 24.3 6.8 11.7 0 22.2-5.6 23-7.8.8-2.3-18.4-87.2-22.6-87.2"/><path class="st0" d="M1317.4 426.7l-8.9 9v-49h-1.2v33.7l-9-9-.6.7 9.6 9.8v5.2l-9-8.9-.7.7 9.7 9.8v37.8h1.2v-29.2l9.7-9.8z"/><path class="st11" d="M1309.6 355.7c-1.4 0-4.3 7.7-5.2 11.3-.5 1.6 2.2 1 2.2-.8 0-1.5 2.2-.2 2.2 6.6 0 11.8 3.8 11 3.8 7.6 0-8.3 2.7-3.7 2.7 4.5 0 3.4 2.7 4.4 2.7 0 .1-10.1-7-29.2-8.4-29.2"/><path class="st3" d="M1350.7 296.7c-1.9 11.3-2.5 20-2.5 24.7 0 12.3 9.9 25.4 22.3 25.4s22.3-13 22.3-25.4c0-7.8-2-27.5-7.6-50.9l-10.3 2.5 8.5-9.3c-3.2-11.9-7.5-24.5-12.9-36.9-9.8 22.9-15.5 45.5-18.7 63.1l8.5 7.6-9.6-.8z"/><path class="st6" d="M1369.3 321.7l.5 42.8h1.2l-1-63.9 13.7-10-.7-1-13 9.4-.1-6.5.1.1 11.3-8.3-.7-.9-10.7 7.9-.6-40.8h-1.3l1.2 69.9-11.2-6.9-.6 1.2z"/><path class="st11" d="M1386.1 267.6c-2.6-.9-15.1 5.4-14 8.3 1.1 3 7.8 3.3 10.9 1.1 3.1-2.3 3.3 9.8 6.4 7 2.1-2-.5-15.5-3.3-16.4"/><path class="st0" d="M1369.5 224.5c-2.6 0-8.2 13.8-13 30.2s-6.4 28.6-2.4 28.6c4-.1 6.4-12.3 6.4-17.4 0-12.2 4-18.9 4-6.6 0 5.1 5.7 6.4 5.7-11.3 0-10.2 3.2-12.1 3.2-9.9 0 2.6 3.8 3.5 3.3 1.1-1.1-6.8-4.5-14.7-7.2-14.7"/><path class="st11" d="M1349.8 295.6c-3 2.9-1 17.4.8 15.6s.9-8.2 3.7-11.1c2.1-2.1 6.1 0 5.3-3.4-.4-2.4-8-2.9-9.8-1.1"/><path class="st9" d="M1451.9 422c1.2 3.6 16.3 5.4 32.6 5.4 16.1 0 32.7-2.7 32.7-7.3 0-2.3-8.1-17.8-16.2-31.8 5.7-.8 9.7-1.9 10.2-3.5 1.2-3.4-7-19.8-14.8-32.3 4-.4 6.9-1.3 7.3-2.5 1.3-3.9-15.8-34-19.4-34-2.8 0-19.5 30.2-19.5 32.8 0 1.6 3.6 2.9 8.5 3.5-7.6 12.4-16.1 28.5-16.1 30.9 0 2.1 3.9 3.6 9.6 4.7-8.4 14.4-16.2 30.8-14.9 34.1z"/><path class="st4" d="M1483.4 385.1V449h1.2v-29l9.2-9-1-.8-8.2 8.2V344h-1.2v39.4l-7.2-7-.8.8z"/><path class="st11" d="M1483.9 313c-4.9 0-17.3 25.4-13.4 25.4s4-7.1 5.8-5.8c1.7 1.3 4.8-1.8 4.8-4.8s3.9-3.2 6.4-1.8c3.9 2.1 5.3 0 4.5-1.9-.9-2-5.1-11.1-8.1-11.1"/><path class="st10" d="M1460.9 412.2c0-1.2.9-2.3 2.3-2.3 1.2 0 2.4 1 2.4 2.2s-.9 2.3-2.3 2.3c-1.2 0-2.4-.9-2.4-2.2"/><path class="st7" d="M1472 363.3c0-1.4 1.1-2.5 2.5-2.5 1.3 0 2.5 1 2.5 2.5 0 1.3-1.1 2.5-2.5 2.5-1.3 0-2.5-1.1-2.5-2.5"/><path class="st8" d="M1487.8 391.3c0-1.3.9-2.3 2.3-2.3 1.2 0 2.4.9 2.4 2.2 0 1.2-.9 2.3-2.3 2.3-1.2 0-2.4-.9-2.4-2.2M1492.6 343.6c0-1.4 1.1-2.5 2.4-2.6 1.5-.1 2.7.9 2.7 2.3.1 1.4-.9 2.6-2.4 2.6-1.5.2-2.7-.9-2.7-2.3"/><path class="st5" d="M1588.6 357.5c-4.8 0-26.7 96.6-25.7 99.2.9 2.4 12.8 8.8 26.1 8.8s24.9-4.4 27.7-7.7c2.8-3.4-25.1-100.3-28.1-100.3"/><path class="st6" d="M1577.4 434.9l11.1 11.2v33.2h1.2v-43l11.2-11-.9-1-10.3 10.2v-5.9l11.1-11.1-.8-.9-10.3 10.2v-38.2h-1.2v55.7l-10.2-10.3z"/><path class="st11" d="M1589.2 354.3c2.4 0 7.4 12.5 11.6 27.3 4.3 14.7 7.4 25.7 3.8 25.7s-7.4-7.7-7.4-15.6c0-10.9-3.6-17-3.6-5.9 0 4.5-5.1 5.7-5.1-10.2 0-9.2-2.9-10.9-2.9-8.9 0 2.4-3.4 3.2-3 1 1.1-6.2 4.2-13.4 6.6-13.4"/><path class="st3" d="M1564.8 260.9c-8.2 14-15.8 30.3-14.6 33.8 1 3.6 15.8 5.3 31.5 5.3s31.7-2.8 31.7-7.2c0-2.3-7.8-17.7-15.7-31.5 5.6-.8 9.6-2 10-3.6 1-3.3-6.9-19.7-14.4-31.9 4-.6 6.7-1.3 7.1-2.6 1.2-3.9-15.4-33.7-18.8-33.7-2.7 0-18.9 29.9-18.9 32.6 0 1.6 3.4 2.9 8.2 3.6-7.3 12.2-15.6 28.4-15.6 30.6.2 2 4 3.5 9.5 4.6"/><path class="st6" d="M1581.1 251.9v70.8h1.2v-36.3l8.8-8.8-.8-.8-8 8v-73.7h-1.2v39.2l-7-7.2-.9.8z"/><path class="st11" d="M1582.1 189.6c-6.7 0-18.1 22-13.9 22 3.8 0 7.7-12 13.9-12 4.6 0 9.2 10.7 12 6 2-3.2-8.2-16-12-16"/><path class="st6" d="M1644.5 116.7c-4.4 0-24.7 89.7-23.9 92.1.9 2.3 11.9 8.2 24.3 8.2s23.1-4.1 25.7-7.2-23.3-93.1-26.1-93.1"/><path class="st11" d="M1634.1 188.6l10.3 10.4v30.8h1.2v-39.9l10.3-10.3-.8-.8-9.5 9.4v-5.5l10.2-10.3-.7-.8-9.5 9.5v-35.5h-1.2v51.7l-9.4-9.5z"/><path class="st0" d="M1643.2 112.8c-1.5 0-9 20.2-8.8 30.8 0 4.6 2.9 3.6 2.9 0 0-8.6 2.8-13.5 2.8-4.7 0 3.6 4 4.5 4-8 0-7.2 2.3-8.6 2.3-7 0 1.9 2.8 2.5 2.3.8-1-3.8-4-11.9-5.5-11.9"/><path class="st5" d="M1733.3 306.3l8.2-7.3c-3.1-16.9-8.6-38.7-18-60.8-5.3 11.9-9.3 24.1-12.5 35.5l8.2 8.9-9.9-2.4c-5.5 22.6-7.3 41.4-7.3 49 0 11.9 9.5 24.4 21.4 24.4s21.4-12.6 21.4-24.4c0-4.5-.6-12.9-2.3-23.8l-9.2.9z"/><path class="st6" d="M1736 322.6l-.5-1-10.7 6.5 1-67.2h-1.1l-.7 39.2-10.3-7.5-.7.8 10.9 8h.1l-.1 6.2-12.4-9-.7.9 13.1 9.6-1 61.5h1.2l.6-41.1z"/><path class="st11" d="M1709.4 278.2c-2.5.8-5 13.3-2.9 15.1 2.9 2.6 3-8.5 5.8-6.4s9 1.8 10-1c1.1-2.7-10.3-8.5-12.9-7.7M1724 235.6c-2.5 0-5.6 7.4-6.7 13.7-.4 2.3 3.1 1.4 3.1-1 0-2 3-.3 3 9.1 0 16.2 5.2 15.1 5.2 10.4 0-11.4 3.7-5.1 3.7 6.1 0 4.7 2.2 15.9 5.9 16 3.7 0 2.2-11.3-2.2-26.3-4.3-15.2-9.4-28-12-28M1742.4 305.3c-1.6-1.6-8.5-1.2-9.1 1-.8 3.1 3 1.2 4.9 3.1 2.6 2.6 1.8 8.6 3.4 10.2 1.7 1.7 3.6-11.5.8-14.3"/><path class="st7" d="M1716.7 329.5c0 1.1-.9 2-2 2s-2-.9-2-2 .9-2 2-2 2 1 2 2M1736 296c-.1 1-.9 1.8-1.9 1.8-1-.1-1.8-.9-1.8-1.9.1-1 .9-1.8 1.9-1.8 1.1.1 1.8.9 1.8 1.9"/><path class="st8" d="M1714.6 309.2c-.1 1-.9 1.8-1.9 1.8-1-.1-1.8-.9-1.8-1.9.1-1 .9-1.8 1.9-1.8 1.1.1 1.9.9 1.8 1.9M1717.8 269.2c-.1 1-.9 1.8-1.9 1.8-1-.1-1.8-.9-1.8-1.9.1-1 .9-1.8 1.9-1.8 1 .1 1.8.9 1.8 1.9M1733.2 333.6c-.1 1-.9 1.8-1.9 1.8-1-.1-1.8-.9-1.8-1.9.1-1 .9-1.8 1.9-1.8 1.1.1 1.9 1 1.8 1.9"/><path class="st9" d="M1869 230c-4.2 0-23.4 85-22.6 87.2.9 2.2 11.3 7.8 23 7.8s21.9-3.9 24.3-6.8c2.5-2.9-22-88.2-24.7-88.2"/><path class="st6" d="M1859.2 298.1l9.7 9.9v29.1h1.2v-37.7l9.7-9.8-.7-.8-9 8.9v-5.2l9.6-9.7-.6-.8-9 9v-33.6h-1.2v49l-8.9-9z"/><path class="st11" d="M1867.8 226.3c-1.4 0-8.5 19.1-8.3 29.2 0 4.4 2.7 3.4 2.7 0 0-8.1 2.7-12.8 2.7-4.5 0 3.4 3.8 4.3 3.8-7.6 0-6.8 2.2-8.1 2.2-6.6 0 1.8 2.7 2.4 2.2.8-1.1-3.6-3.9-11.3-5.3-11.3"/><path class="st3" d="M1792 323.9c-2.8 0-28.7 90-26.1 93.1s13.3 7.2 25.7 7.2c12.4 0 23.4-5.9 24.3-8.2.8-2.4-19.5-92.1-23.9-92.1"/><path class="st6" d="M1801.5 395l-9.4 9.5v-51.7h-1.2v35.5l-9.5-9.5-.7.8 10.2 10.3v5.5l-9.5-9.4-.8.8 10.3 10.3V437h1.2v-30.8l10.3-10.4z"/><path class="st0" d="M1793.3 320c-1.5 0-4.5 8.1-5.5 11.9-.5 1.7 2.3 1.1 2.3-.8 0-1.6 2.3-.2 2.3 7 0 12.5 4 11.6 4 8 0-8.8 2.8-3.9 2.8 4.7 0 3.6 2.9 4.6 2.9 0 .2-10.6-7.3-30.8-8.8-30.8"/><path class="st6" d="M1891.9 426.1c5.4-1.1 9.1-2.6 9.1-4.5 0-2.2-8-17.9-15.2-29.9 4.7-.7 8-2 8-3.5 0-2.6-15.9-31.8-18.5-31.8-3.4 0-19.6 29.1-18.4 32.9.4 1.2 3 2 7 2.5-7.3 12-15 27.9-14 31.2.4 1.5 4.3 2.7 9.8 3.5-7.7 13.5-15.3 28.5-15.3 30.8 0 4.3 15.7 7.1 31 7.1s29.8-1.7 30.8-5.2c1.2-3.6-6.2-19.4-14.3-33.1"/><path class="st0" d="M1883.8 409.4l-.9-.7-6.8 6.9v-38.2h-1.2v71.9l-7.9-7.7-.7.8 8.6 8.6v35.4h1.2v-69.1zM1875.1 356.4c-3.7 0-13.7 12.5-11.7 15.7 2.7 4.6 7.3-5.9 11.7-5.9 6.1 0 9.9 11.7 13.6 11.7 4.1 0-7.1-21.5-13.6-21.5"/><path class="st9" d="M1818.2 120.7c-2.7 0-27.2 85.3-24.7 88.2s12.6 6.8 24.3 6.8c11.7 0 22.2-5.6 23-7.8.8-2.3-18.4-87.2-22.6-87.2"/><path class="st6" d="M1827.2 188l-8.9 9v-48.9h-1.1v33.6l-9-9-.7.7 9.7 9.8v5.2l-9-8.9-.8.8 9.8 9.7v37.8h1.1v-29.2l9.8-9.8z"/><path class="st0" d="M1819.5 117c-1.4 0-4.3 7.7-5.2 11.3-.5 1.6 2.2 1 2.2-.8 0-1.5 2.2-.2 2.2 6.6 0 11.8 3.8 11 3.8 7.6 0-8.3 2.7-3.7 2.7 4.5 0 3.4 2.7 4.4 2.7 0 .1-10.1-7-29.2-8.4-29.2"/></svg>