<svg xmlns="http://www.w3.org/2000/svg" viewBox="0 0 995.76 1038.96"><defs><style>.cls-1{fill:#71554a;}.cls-2{fill:#d1e8ec;}.cls-3{fill:#fff;}.cls-4{fill:#fd8da3;}.cls-5{fill:#fcbac6;}.cls-6{fill:#fe8da3;}</style></defs><title>yasminos</title><g id="Layer_2" data-name="Layer 2"><g id="Layer_1-2" data-name="Layer 1"><path class="cls-1" d="M994.92,531.38c-.76,6.57-2.91,12.75-5.43,18.81A74.43,74.43,0,0,1,976.84,571a20.42,20.42,0,0,0-5.07,13.55c-.5,15.12-3.75,29.77-8.62,44.05a240,240,0,0,1-21.81,47.35A16.46,16.46,0,0,0,939,683.6c-.72,10.84-1.42,21.69-2.76,32.48a89,89,0,0,1-1.47,9.95,11.33,11.33,0,0,0,3.11,11.41c3,3.08,5.89,6.3,8.86,9.42,1,1,2.11,2,3.11,3,1.89,2,1.57,3.2-1.14,4-4.65,1.47-9.42,2.11-14.16.69-4.15-1.24-5.41.08-6.35,4a288.27,288.27,0,0,1-8.27,28c-10,28.39-23.59,54.86-42.3,78.56a203.61,203.61,0,0,1-66.53,55.43,136.77,136.77,0,0,1-46.37,14.57,132.61,132.61,0,0,1-61.8-7c-3.31-1.19-6.54-2.56-9.81-3.86-1-.41-2-.91-3.1-1.26-1.81-.6-2.87,0-3,1.83-.31,3.34-.6,6.69-.65,10a170.82,170.82,0,0,0,2,28.66c1.12,7.27,2.57,14.47,4.29,21.61a58.48,58.48,0,0,0,1.7,6c1.9,5.29.89,10-2.45,14.42a34.82,34.82,0,0,1-2.5,2.91c-24.6,25.47-64.1,24-87.21.26-.43-.44-.88-.85-1.31-1.26-1.52.66-1.56,2.11-2,3.22-2.44,6.07-4.78,12.19-7.17,18.29-.53,1.33-1.16,2.63-1.69,4a8.61,8.61,0,0,1-5.19,5.29c-2.68,0-5.38,0-8.07,0-1.74,0-3.47-.13-5.21-.2a133.64,133.64,0,0,1-26.14-5.73c-15.86-5.5-30.42-13.2-42.58-25a134.74,134.74,0,0,1-24.11-32.61c-1.12-2.07-1.05-2.11.85-3.93,4.24,6.17,8.61,12.25,13.21,18.18A99.76,99.76,0,0,0,518,1012.16c18.22,11.63,38.29,18.05,59.59,20.85a41,41,0,0,0,7.18,0,4.38,4.38,0,0,0,4-2.92c.31-.74.55-1.5.81-2.26,3.23-9.35,6.08-18.82,8.77-28.34a20.92,20.92,0,0,0,.58-2.81c.26-1.84-.38-2.72-2.25-2.91a41.93,41.93,0,0,0-21.93,3.71,3.72,3.72,0,0,0-2.35,4.21c.21,2.54.35,5.09.36,7.64a11.4,11.4,0,0,1-2.06,6.74c-.64-.69-.33-1.29-.28-1.88.6-7.47-1.08-14.38-5.84-20.19-7.89-9.64-17.91-14.63-30.69-13a56.08,56.08,0,0,0-9.33,2.05c-1,.31-1.94,1.16-3.1.56-.06-.32-.22-.64-.14-.9,2-7,.06-13-4.49-18.21-3.55-4.1-7.47-7.83-12.42-10.33-3.52-1.79-4.21-1.81-7,1.1-.67.69-1.29,1.42-2,2.09a3.63,3.63,0,0,1-3.1.91c.86-1.14,1.67-2.31,2.6-3.39,19.4-22.62,31.38-48.7,36.66-78a203.46,203.46,0,0,0,2.1-53.48c-1.41-16.63-5-32.82-9-48.94q-3.15-12.56-6.25-25.1c-.19-.78-.29-1.58-.53-2.34-.68-2.11-1.76-2.71-4-2.28-5,1-10,2-15.06,2.84A192,192,0,0,1,452,749.54a129.65,129.65,0,0,1-33.19-6.85,118.61,118.61,0,0,1-11.88-5.1c-1.13-.55-2.21-1.31-3.64-1a7.26,7.26,0,0,0-.19,1.39c1,13.86,1.27,27.79,2.91,41.6,2.65,22.22,6.54,44.22,12.73,65.78a433.53,433.53,0,0,1,10.59,44.72,350.16,350.16,0,0,1,5.15,47.12c-1.25-.42-1.58-1.43-1.73-2.6-.35-2.53-.69-5-1.1-7.57a30,30,0,0,0-1.8-7.4,5.44,5.44,0,0,0-4.71-3.55c-2.06-.16-4.14-.27-6.21-.23-1.54,0-2.21.9-2.41,2.42-.14,1,.89,2.11-.2,3.06-3.53-3.2-5.21-4.19-8.48-5-4.6-1.12-5.64-.17-4.61,4.4,1.16,5.13,2.19,10.28,3,15.47.52,3.17.45,6.36.74,9.53.15,1.62.9,2.31,2.51,2.21a31.87,31.87,0,0,0,15.42-4.53,30.4,30.4,0,0,1,9.56-4c.42,2.15-.63,3.73-2.16,5-3.58,2.9-7.32,5.58-11.74,7.1a18.78,18.78,0,0,1-6.52,1.2c-.79,0-1.58,0-2.38,0-3.45.08-4,.62-4.3,4.19-.11,1.42,0,2.86-.1,4.28-.14,2.38-.3,4.75-.54,7.12a5.68,5.68,0,0,1-1.87,4.19c0-3.68,0-7.35,0-11,0-2.39,0-4.8-.26-7.18a179,179,0,0,0-5.76-31c-1.88-6.89-3.78-7.82-10.73-5.46-6.78,2.31-11.67,7.09-16.21,12.32a4.78,4.78,0,0,0-.66,5c.58,1.65,1.33,3.25,1.91,4.91a10,10,0,0,1-.49,8.76c-1.06-1.2-1.07-2.68-1.4-4a31.87,31.87,0,0,0-6.84-13.57c-6.2-7.24-16.22-9.63-24.28-5.32C332.26,930,327,936.37,326,945.63a6.85,6.85,0,0,1-.37,1.23c-1.37-.65-1.31-1.83-1.34-2.93-.09-2.29.79-4.38,1.4-6.53.73-2.59.45-3.35-1.88-4.72a39,39,0,0,0-12-4.79,31.13,31.13,0,0,0-16.11.59c-3.6,1.19-4.63,2.8-3.75,6.51,1.43,6.08,2.39,12.23,3.26,18.39a13,13,0,0,0,5.42,9.13c15.58,11.73,33,17.85,52.56,17.94,6.4,0,12.77-.27,19.15-.78a199.83,199.83,0,0,0,20.4-2.73c3-.55,5.88-1.51,9-1.38-6.89,4.21-14.46,6.7-22.22,8.62a116.12,116.12,0,0,1-37.14,2.8c-15.62-1.25-29.27-7.48-41-17.9a24.25,24.25,0,0,1-8-14.36,299.1,299.1,0,0,0-7-31.3c-7.19-25.31-17.71-49.23-30.15-72.37-15.89-29.56-33.21-58.28-50.66-86.93q-32.67-53.61-65.17-107.32c-10-16.55-19.31-33.49-27.64-50.95a257.16,257.16,0,0,1-19.07-53.59,199.19,199.19,0,0,1-5.07-49.45,21.17,21.17,0,0,0,0-2.39c0-.4,0-1-.69-1s-.73.52-.94.89c-.3.56-.53,1.17-.77,1.75a60.82,60.82,0,0,1-5.32,10.18A32.13,32.13,0,0,0,79,515.58a20.78,20.78,0,0,0-.61,18.49c.26.59.52,1.17.79,1.75,2.78,5.9,2.49,11.74-.23,17.57a41,41,0,0,1-7.73,10.9c-1.88,2-3.85,3.83-5.8,5.73-1,1-2.09,2-3.15,2.94-7.5,6.84-10,15.34-8.34,25.2.42,2.52.9,5,1.29,7.56a28.58,28.58,0,0,1-.28,10.94,17.64,17.64,0,0,1-8.12,11.39,28,28,0,0,1-12.07,4.31,1.68,1.68,0,0,1,1.43-1.65,32.64,32.64,0,0,0,7.49-3.14c5.45-2.82,8.31-7.22,8.41-13.44a59.29,59.29,0,0,0-1.62-15.19c-1.35-5.53-1.62-11,.68-16.43a35.44,35.44,0,0,1,7.49-11c3.47-3.53,7-7,10.56-10.45a35.48,35.48,0,0,0,5.36-6.73,20.86,20.86,0,0,0,2.74-15.64c-1-4.4-2.15-8.71-4.76-12.45-1.89-2.72-1.67-5.23-.12-8,2.24-4,4.25-8.23,6.28-12.39a116.16,116.16,0,0,0,7.85-21.57c3.49-13.35,4.93-27,5.6-40.71a216.86,216.86,0,0,1,3-28.55,109.08,109.08,0,0,1,14.21-37.39,4.15,4.15,0,0,1,.93-1.07,1.19,1.19,0,0,1,.88-.19c.26.06.64.34.66.56a12.29,12.29,0,0,1,.11,2.84c-1,8.87-2.35,17.7-4.14,26.46-1,4.83-2.51,9.6-2.26,14.63a4,4,0,0,0-1.08,2.59c-.78,4.24-1.57,8.47-2.34,12.71-2.45,13.52-4.52,27.09-6,40.74a280.21,280.21,0,0,0-1.3,33,173,173,0,0,0,3.34,31.88c5,24.61,14,47.76,25.56,70,8.8,16.87,18.82,33,28.56,49.35,23,38.54,46.67,76.69,69.25,115.49,12.46,21.4,24.69,42.93,36,65,13.17,25.64,24.32,52.08,31.43,80.1.24.93.5,1.85.82,2.76.8,2.33,1.82,2.86,3.92,1.86,1.29-.6,2.48-1.42,3.71-2.15a20.55,20.55,0,0,1,11.32-.27,7.27,7.27,0,0,0,2.38.1,14.94,14.94,0,0,1,7,1.5,58.81,58.81,0,0,1,7.24,3.71,4.29,4.29,0,0,0,5.69-.65c1-1,2-2.08,3.09-3,7.26-6.14,15.23-7.64,24.05-3.68a16.9,16.9,0,0,1,5.76,4.2c2,2.21,4.08,2.76,6.88-.32.54-.58.91-1.31,1.42-1.93,1-1.23,2-2.43,3.06-3.64,1.35-.85,2.7-1.69,4-2.56,3.66-2.37,7.5-4.2,11.95-4.51a9,9,0,0,0,2.33-.49,1.86,1.86,0,0,0,1.42-2.18,28,28,0,0,0-.83-3.24c-2.06-6.54-4-13.1-6.21-19.6-8.15-24.37-17.79-48.16-27.18-72.06-6.66-16.91-13.55-33.74-20-50.72a298.11,298.11,0,0,1-14.82-52.4c-1.67-9.11-2.49-18.32-3.8-27.47.16-1.32.31-2.64-.66-3.76l-.17-1.83q-.36-9.62-.71-19.24a36.06,36.06,0,0,0,.76-4.69c.14-4.59.14-9.2.18-13.8,0-.93.1-2-1.09-2.34s-1.71.62-2.29,1.38c-.3.37-.57.76-.85,1.14-3.55,1.81-7.34,3.25-10.75,5.21-3.91,2.25-8.06,3.68-12.15,5.39-1.61.67-3,.75-2.91,0,.13-1.23,1.34-1.19,2.08-1.66,1.49-.93,3.13-1.62,4.59-2.58a18.81,18.81,0,0,1,5.6-2.65,20.49,20.49,0,0,0,6.32-3.33,159.44,159.44,0,0,0,28.12-25.24,21.41,21.41,0,0,0,1.75-2.27c1.77-2.61,3.51-5.23,5.28-7.84a2.84,2.84,0,0,1,.68-.66.45.45,0,0,1,.45,0c.21.19.5.45.49.67a3.38,3.38,0,0,1-.35,1.36,87.48,87.48,0,0,1-17.7,23.7c-.82.76-1.62,1.55-2.39,2.36a8.47,8.47,0,0,0-2.45,6.06c0,1.12,0,2.24.11,3.36.63,8.76,1.36,17.51,1.87,26.28A225.62,225.62,0,0,0,329.3,697a356.53,356.53,0,0,0,19.84,67.95c9.17,23.17,18.89,46.12,27.59,69.47,8.14,21.86,15.68,43.93,21.46,66.55.48,1.85,1.05,3.68,1.67,5.49a8.17,8.17,0,0,0,7.41,5.9,10.45,10.45,0,0,1,4.13,1.08c1.69.94,3.05.3,4.33-.83,1.42-.25,2.83-.52,4.24-.76a16.13,16.13,0,0,1,4.75.31c1.32.16,2.64,1,4.19.39a28.47,28.47,0,0,0-.23-3c-2.53-13.48-5.41-26.89-9.66-39.95a474,474,0,0,1-15.63-60.12q-2.92-15.75-4.46-31.72c-.56-5.72-.66-11.46-1.1-17.18a159.36,159.36,0,0,1-.12-23.43c.23-3.28-.63-5.54-3.27-7.36a130.19,130.19,0,0,1-11.18-9c-2-1.77-4.17-3.42-6.27-5.13-1.1-1.35-2.15-2.75-3.31-4.06a33.9,33.9,0,0,1-5.16-7.46c-.28-.57-1-1.24-.23-2,1.54.72,2.38,2.15,3.46,3.29a138.84,138.84,0,0,0,12.4,12,113.21,113.21,0,0,0,45.58,22.43,168.4,168.4,0,0,0,38.4,4.68c6.54.06,13.07-.26,19.61-.71,7.65-.53,15.23-1.64,22.85-2.36a30.32,30.32,0,0,0,3.76-.7,1.92,1.92,0,0,0,1.69-2.42,7.65,7.65,0,0,0-.15-.94c-1.76-7.48-2.22-15.15-3.42-22.71a68.62,68.62,0,0,1-1-8.07c-.33-8.14-.47-16.26.68-24.38A155.85,155.85,0,0,1,520,650.65a335.45,335.45,0,0,1,14-32c2.58-5.31,5-10.7,7.44-16.08a19.82,19.82,0,0,0,1.44-12.65c-1.78-8.28-2.88-16.65-4-25-1.37-10.46-2-21-2.36-31.49-.31-9.41-.12-18.82.49-28.24.67-10.37,1.65-20.67,3-31,1.79-13.94,4.46-27.71,7.49-41.42,2.58-11.69,6-23.15,9.53-34.6,1-3.35,2.29-6.64,2.68-10.16.3-.33.62-.75.24-1.11s-.73.07-1,.38a9.06,9.06,0,0,0-3.54,2.4c-3.08,2.78-6.12,5.6-9.18,8.4-1.48,1.35-3,2.67-5,4.48a5.2,5.2,0,0,1,1.79-3.45c2.68-3,5.32-5.95,8.09-8.83,6-6.21,12-12.36,18-18.53a2.87,2.87,0,0,1,.73-.62c2.76-1.44,4.66-3.82,6.77-6,3.66-3.77,7.26-7.59,11.89-10.3a28.69,28.69,0,0,0,6.63-5.48,26.9,26.9,0,0,1,5.92-4.81c3.65-2.25,7.67-3.95,10.59-7.28a5.45,5.45,0,0,1,1.67-.9c2.83-1.46,5.75-2.76,8.46-4.41a93.06,93.06,0,0,1,13.23-6.66,133.65,133.65,0,0,1,38.31-9.86,112.07,112.07,0,0,1,26.72.69c12.53,1.79,24.55,5.58,36.31,10.18,1,.4,2,1,3.18.92v0a1,1,0,0,0,1.06.79c5.68,3.27,11.4,6.45,17,9.83a216.39,216.39,0,0,1,34.92,26,159.39,159.39,0,0,1,23.56,27.06,7.53,7.53,0,0,0,6.71,3.71c5.59,0,11.17.42,16.75.67a149.16,149.16,0,0,1,30.74,4.62c5.56,1.44,11.08,3,16.62,4.54a1.89,1.89,0,0,0,.39.26c.58.2,1.31.63,1.66-.08s-.25-1.1-.88-1.33a4.37,4.37,0,0,0-1.26-2.52c-12-14.8-24.16-29.38-37.46-43-11.61-11.91-23.95-23-36.47-34a838.13,838.13,0,0,0-79.73-61.38c-21.93-15-44.51-28.87-67.54-42.06a871.77,871.77,0,0,0-107.53-52.65,613.51,613.51,0,0,0-69.39-23.5,463.36,463.36,0,0,0-55.8-11.53c-8.38-1.19-16.82-1.94-25.24-2.81-4.12-.43-5.48.87-5.63,5.11-.07,1.91,0,3.83,0,5.75,0,.8,0,1.6-.08,2.39a2.93,2.93,0,0,1-1.13,2,6.13,6.13,0,0,1-6.33.81c-1.92-.76-2.52-2.36-2.63-4.2-.12-2.24-.23-4.48-.16-6.71.16-5.16-.83-6-6.19-5.85-8.62.23-17.24.34-25.86,1a254.44,254.44,0,0,0-49.45,8.72C275,148.8,244,166.45,217,191.1c-19.93,18.2-37,38.92-52.43,61a83.52,83.52,0,0,0-7.68,12.69c-2.05,3-4.17,6-6.14,9.1-7.27,11.43-14,23.18-20.4,35.14-3.9,7.3-8.16,14.42-11.38,22.09a17.57,17.57,0,0,1-5.66,7.59c-1.34,0-1.89,1.08-2.52,2C103,351.37,97.37,363.09,94.92,376.2c-2.14,11.47-3.15,23.09-4.65,34.64a303.86,303.86,0,0,1-5.43,31.59c-2.47,10.25-5.48,20.34-8.41,30.46-.93,3.21-2.25,6.32-2.56,9.69-1,2.33-2.07,4.62-3,7a236.07,236.07,0,0,1-10.94,24.28c-1.11,2.1-1.41,2.27-3.76,1.74-6.75-1.51-12.83.52-18.76,3.44-.25.12-.39.48-.58.73a6.09,6.09,0,0,0-4.18.55A56.64,56.64,0,0,0,9.72,537.06a16.84,16.84,0,0,0-1.35,2,21.23,21.23,0,0,0-3,16,38.13,38.13,0,0,0,4.47,11.54q2.78,4.75,6,9.26c4.79,6.77,9.76,13.42,14.52,20.22,4.16,5.94,7.25,12.39,8.22,19.69a39.07,39.07,0,0,1-1.76,7.7,8.81,8.81,0,0,1-3.29,4.94c-.3-1.19.35-2.14.8-3.16,2.66-6.08,2.23-12.07-.56-18a48.89,48.89,0,0,0-5.49-8.93c-3.59-4.67-7.26-9.27-10.9-13.9A117.25,117.25,0,0,1,8,571.19c-2.74-4.69-5.18-9.5-6.29-14.88-.2-.93-.45-1.9-1.75-1.81v-7.68c.42-.16,1-.19,1.22-.5a5.75,5.75,0,0,0,.64-1.77,25.92,25.92,0,0,1,7-11.84,63.85,63.85,0,0,1,37-18.53c1.74-.26,3.48-.53,5.23-.71a5.4,5.4,0,0,0,4.51-3.11c.66-1.28,1.27-2.59,1.86-3.89,7.43-16.34,12.84-33.37,17.34-50.71a452.61,452.61,0,0,0,10.77-56.44c.85-6.65,1.8-13.31,3.1-19.88A88.43,88.43,0,0,1,110.85,336a59.88,59.88,0,0,0,9.84-14.64c11.44-23.59,23.81-46.67,38.08-68.7,13.24-20.44,27.89-39.78,44.89-57.26,25.77-26.51,55.56-46.94,90.45-59.62a249.73,249.73,0,0,1,48.69-12.19c10.13-1.51,20.31-2.37,30.52-3a6,6,0,0,0,4.09-.31,9.23,9.23,0,0,0,3.88.1c1.41.13,2.82.33,4.23.4,5.16.25,6.08-.66,6-6-.14-5.86-.34-11.73-.51-17.6,1.18-.72,2.71.09,3.89-.87-1.13-1.34-3.06-.35-4.22-1.48-.22-7.28.19-14.58-.75-21.83,1.7-.07,3.4-.2,5.09-.17a18.86,18.86,0,0,0,5.5-.68c0,14.8,0,29.58,1.08,44.36.31,4.36,1,4.9,5.15,4.15,10.3,1.28,20.61,2.5,30.9,3.83a405.33,405.33,0,0,1,53.88,11.16c39,10.54,76.36,25.17,112.63,42.72,70.07,33.92,135.08,75.68,194.32,126.27,18.6,15.88,36.56,32.47,53.12,50.5a537.4,537.4,0,0,1,36.19,44.06A36.3,36.3,0,0,0,902,410.94a120.65,120.65,0,0,1,39.91,29.26,104.87,104.87,0,0,1,14.38,20.29,16.58,16.58,0,0,0,6.51,6.77,97.49,97.49,0,0,1,13.7,9.66,53.68,53.68,0,0,1,17.38,26.43c.49,1.67.72,3.42,1.07,5.14-.08,1.95-.46,4,.81,5.71v10.56C994.53,526.84,994.88,529.13,994.92,531.38Zm-886.66-146a1,1,0,0,0,.69-1,2,2,0,0,0-.06-.42c-.21,0-.53,0-.61.13a7.18,7.18,0,0,0-.5,1.13,81.42,81.42,0,0,0-5.13,14.37c-2.84,10.35-3.77,21-4.43,31.58a10.63,10.63,0,0,0,1.51-3.74c2.12-9.47,4.41-18.91,6.4-28.41C107.08,394.51,108.23,390,108.26,385.36ZM806.75,640.85l0-.05a14.1,14.1,0,0,0-.95,1.63q-7.7,18.59-15.33,37.19c-.53,1.3-1.43,2.52-1.2,4.31,3.91.26,7.82.57,11.66-.77a82.67,82.67,0,0,1,19,1.81c6.05,1.4,12.17,2.63,17.42,6.34,1,.68,2.11,1.53,3.68.9.17-.68.38-1.44.56-2.21A361.85,361.85,0,0,1,852,654.64c3.6-10.41,6.72-21,10.79-31.24a47.83,47.83,0,0,0,2.8-8.15,40.87,40.87,0,0,1,2.64-8.18c1.88-4.4,3.68-8.84,5.59-13.24.51-1.15.93-2.53,2.78-3.14-1.35,4.22-2.69,8-3.73,11.79-1,3.68-1.54,7.46-3.7,10.77-.75,1.14-.88,2.71-1.24,4.1-.91,3.54-1.69,7.12-2.71,10.63-1.51,5.21-3,10.43-4.85,15.53a109.57,109.57,0,0,0-3.85,11.83,80.57,80.57,0,0,1-2,7.89c-3.25,9.35-6.63,18.66-10,28a19.28,19.28,0,0,1-1.14,2.64c-.93,1.78-1.92,2.2-3.95,1.65-.92-.25-1.8-.64-2.7-1a20.91,20.91,0,0,0-2.24-.84c-2.12-.55-3.45.35-3.75,2.46a15.34,15.34,0,0,0-.11,1.92c-.12,7-.31,14.06-.32,21.09a120.41,120.41,0,0,0,1.64,22c2.44,13.27,6.46,26,13,37.91.3.53.71,1.09.33,1.76a2.53,2.53,0,0,1-1.83.26c-5-.33-9.67-1.92-14.29-3.8-4.08-1.66-4.93-1.16-6.16,3-.18.61-.29,1.24-.46,1.86a114.51,114.51,0,0,1-8.26,21.43,97.73,97.73,0,0,1-37.42,40.13,25.39,25.39,0,0,0-12.55,17.82,17.12,17.12,0,0,1-2.11,6.32,1.66,1.66,0,0,1-1.08.81c-.28,0-.72-.59-.83-1a11.87,11.87,0,0,1,0-4.75,59.58,59.58,0,0,1,2.21-8.82c.53-1.66-.24-2.54-1.9-2.27A16.64,16.64,0,0,0,749.71,858a28.8,28.8,0,0,0-3.65,6.72,24.11,24.11,0,0,1-1.89,3.85c-.77,1.15-1.78,3.11-3,2.59s-.45-2.5,0-3.8c.49-1.52,1.11-3,1.69-4.48s1.3-3.26,1.9-4.91c.34-1-.12-1.57-1.15-1.48-2.86.26-5.71.74-8.58.87-6,.28-10.78,2.61-13.81,8-.33.6-.79,1.39-1.94.83a20.34,20.34,0,0,1,.76-2.7c.57-1.32,1.36-2.54,2-3.85s.07-2.17-1.43-2.25a47,47,0,0,1-7.08-1.21c-8.57-1.76-7.11-2.43-15.17.7-.66-.8.08-1.49.19-2.23s.09-1.29-.59-1.64c-2.68-1.41-5.36-2.84-8.07-4.2a9.21,9.21,0,0,0-8.74-.07c-.84.43-1.61,1.11-2.65,1a1.15,1.15,0,0,1-.78-.43,1,1,0,0,1,0-.88c.61-.73,1.31-1.38,2-2.08.83-.93.91-1.78,0-2.49-2.21-1.82-4.45-3.64-6.78-5.31a5.92,5.92,0,0,0-5.94-.6,25.62,25.62,0,0,0-2.57,1.28c-.77.43-1.59.63-2.05-.24s.34-1.45,1-1.92c.89-.68,1.89-1.21,2.75-1.92a2.1,2.1,0,0,0,.49-3,84.74,84.74,0,0,0-5.33-7.37c-2.71-3.13-6.09-4.58-10.3-3-.56.21-1.39.94-2-.14.85-1.43,2.49-1.35,3.68-2.08,3.27-2,4.15-4,3.1-7.62-.48-1.69-1.1-3.34-1.69-5a5.75,5.75,0,0,1-.26-3.75,17,17,0,0,0-1.6-13.42,14.88,14.88,0,0,1-2-7.24c1.22,0,1.36.92,1.7,1.56a36.74,36.74,0,0,0,4.52,6.76c7.16,8.58,16.4,11.36,27.09,9,5.88-1.32,9.7-5.27,11.26-11.25a23.17,23.17,0,0,0,.47-9c-.49-3.82-1.85-7.42-2.5-11.19l.44.19c2,.83,2.42.66,2.32-1.1a27.09,27.09,0,0,0-.31-2.84,36.32,36.32,0,0,0-7.58-16.78,41.29,41.29,0,0,0-17.22-13.21c-11.38-4.51-24.08.71-28.38,13.4a28.48,28.48,0,0,0-1.08,13.65c-3-1.77-5.68-1.13-8.47.61a99.26,99.26,0,0,0-9.58,6.28c-7,5.61-12.29,12.47-14.39,21.39a70.1,70.1,0,0,0-.92,24.71c1.08,8.74,4,17,7.74,25,4.07,8.69,9.56,16.53,14.62,24.62A9.66,9.66,0,0,0,632,866.2a16.09,16.09,0,0,0,3.28,5.25c2.35,2.83,4.7,5.65,7.2,8.34a156.68,156.68,0,0,0,56.89,38.83,126.68,126.68,0,0,0,67.63,8,136.44,136.44,0,0,0,38.65-12.26A188.37,188.37,0,0,0,844,889.17a37.91,37.91,0,0,0,3.13-2.95,4.64,4.64,0,0,0,.89-5.33,17.45,17.45,0,0,0-1.37-2.51c-.68-1.08-1.42-2.12-2.11-3.2-.26-.42-.42-1,.09-1.24a1.47,1.47,0,0,1,1.26.26,27.77,27.77,0,0,1,2.41,2.32c.67.69,1.23,1.48,1.92,2.14a3.73,3.73,0,0,0,4.8.63,7.54,7.54,0,0,0,1.92-1.42q4.92-5.55,9.75-11.17c1.62-1.89,1.71-4,.83-6.28-.48-1.27-1.65-2.41-1.15-4,1.79-.42,2.17,1.44,3.32,2.05a3.3,3.3,0,0,1,.39.26,2.6,2.6,0,0,0,3.84-.37,12.09,12.09,0,0,0,1.23-1.45c3.49-4.78,7-9.54,10.41-14.35a25.38,25.38,0,0,0,2.38-4.14,3.93,3.93,0,0,0-.6-4.49c-2.23-2.48-4.34-5.12-7.56-6.45l-2.4-2.28c-.54-.5-1.6-.9-1.09-1.79.61-1.06,1.65-.49,2.54-.2,1.19.39,2.4.75,3.6,1.12,1.71,1.67,3.43,3.34,5.13,5,.8.79,1.53,1.63,2.36,2.38,1,.89,2,.71,2.83-.45a15.86,15.86,0,0,0,1-1.65q5-9.3,9.92-18.61c.81-1.56,1.46-3.19,2.23-4.78a4.48,4.48,0,0,0-.86-5.31,16.08,16.08,0,0,0-5.11-4.27c-.22-1.56-1.61-2.12-2.58-3s-1.7-1.76-1.28-3.16l0,0c1.55-.09,2.58.93,3.71,1.74s1.71,1.83,3,2.2a54.78,54.78,0,0,0,5.41,6.15,18.45,18.45,0,0,0,1.18-1.82c3.29-6.92,5.89-14.13,8.48-21.33a14.46,14.46,0,0,0,.47-1.86,4,4,0,0,0-1.82-4.54c-.67-.43-1.38-.8-2.07-1.19-1.64-2.6-4.12-4.33-6.43-6.24-1.71-1.41-3.42-2.81-5.08-4.28-.51-.45-1.31-.87-.95-1.93,3.66.67,6.79,2.46,9.89,4.34,1.62,1,3.25,1.93,4.87,2.9a8.68,8.68,0,0,0,2.14,3.07,1.6,1.6,0,0,0,2.68-.68c.76-3.36,2.11-6.59,2.29-10.09.3-.73.59-1.47.91-2.2,1.37-3.17,1.32-3.43-1-5.86a9.9,9.9,0,0,1-1.47-1.84c-.23-.41,0-1.08.54-1.07a17.25,17.25,0,0,1,2.3.51,1.91,1.91,0,0,0,2-1,8.7,8.7,0,0,0-.14-10.29,36.94,36.94,0,0,0-4.13-4.63c-3.09-3-6.29-5.89-9.41-8.85-.5-.47-1.33-.83-1.1-1.8a27.67,27.67,0,0,1,12.1,7.29c1.48,1.45,2.9,3,4.38,4.42a1,1,0,0,0,1.54-.48c1.85-7.43,2.82-15,3.94-22.59a2.87,2.87,0,0,0-1.06-2.56,20.9,20.9,0,0,0-2.65-2,83.18,83.18,0,0,0-13.12-6.88,11.43,11.43,0,0,1-4.29-2.37,18.12,18.12,0,0,1,8.74,1.06,91.1,91.1,0,0,1,10.95,4.81c1.73.81,2.17.56,2.58-1.37a29.11,29.11,0,0,0,.83-4.7c.25-5.57.21-11.17,1.34-16.67a3.31,3.31,0,0,0-1.33-3.37l-4-3.41a6,6,0,0,1-2.29-3.32,2.21,2.21,0,0,1,2,.34,36.63,36.63,0,0,1,6.54,4c1.07.81,2.59.6,2.91-.41.8-2.54,2.87-4.64,2.67-7.53,1.83-1.45,2.38-3.67,3.26-5.66,1.08-2.43.57-3.18-2.44-4.29-4.19-4-9.08-7-14-10.08-3.1-1.95-6.46-3.45-9.29-5.87a11.65,11.65,0,0,0-4.27-2.08,15.36,15.36,0,0,1-4.37-1.86,6.73,6.73,0,0,0-3.52-1.38c-1.94-.07-3-1.24-4-3.09,3.76.74,7.17,1.39,10.28,3.15a13.74,13.74,0,0,0,4.45,1.71c3.08.5,5.72,2,8.43,3.3a112.47,112.47,0,0,1,13.16,7.84c1.59,1.07,3.22,2.06,4.83,3.09,2.48,3.11,3.29,3,4.73-.34.06-.14.11-.3.17-.44,3.74-10,7.49-20,10.22-30.38a185.85,185.85,0,0,0,6.21-43,150.69,150.69,0,0,0-1.12-19.59,158.28,158.28,0,0,0-3.56-19.28c-.21-.88-.33-1.89-1.76-2-.7,1.71-1.43,3.47-2.14,5.23-.41,1-.76,2.11-1.9,2.62.43-1.81.8-3.64,1.3-5.43a41,41,0,0,0,1.57-8.7,19.91,19.91,0,0,0,.9-2.2,66.64,66.64,0,0,0,.56-34.56c-5.14-20.6-16-37.82-31.61-52.05-11.56-10.54-24.92-18.3-39.24-24.49-21.26-9.18-43.64-13.13-66.6-14.14-9.25-.41-18.53-.08-27.79,0-1.57,0-3.23-.29-4.61.81-1.27,0-2.54-.16-3.8-.11-8.75.34-17.5.72-26.25,1.06-.46,0-1.3.54-1.36-.7,1.07-.26,2.13-.6,3.21-.75,7.87-1.11,15.76-2.17,23.63-3.28,3.46-.48,6.89-1.06,10.34-1.59l15.3-1.05a7.34,7.34,0,0,0,1.87-.33.8.8,0,0,0,.46-1.14,13.15,13.15,0,0,0-1.31-2,159.68,159.68,0,0,0-23.57-23.79,251.79,251.79,0,0,0-36.84-25c-18.56-10.5-38.22-17.55-59.65-19.4a116.56,116.56,0,0,0-33.82,2,151.18,151.18,0,0,0-49.79,20.52c-6.9,4.33-13.37,9.31-20.1,13.91a154.87,154.87,0,0,0-13.62,10.57,42.09,42.09,0,0,0-13.82,21.89c-6.92,26.62-12.38,53.49-15.36,80.86-1.26,11.6-2.2,23.22-2.53,34.87a413.75,413.75,0,0,0,1,45.51A344.27,344.27,0,0,0,551,591a235.62,235.62,0,0,0,7.47,29.71,281.91,281.91,0,0,0,24.59,59.15c3,5.45,6.53,10.6,9.83,15.89a11.61,11.61,0,0,0,8.46,5.67c2.36.35,4.71.85,7.06,1.3a148.84,148.84,0,0,0,35.75,2.64,74,74,0,0,0,17-2.94c20.12-5.83,35.21-18.28,46.54-35.62,6.86-10.51,11.59-22,15.75-33.8,6.73-19,10.92-38.71,15.35-58.34,3.86-17.14,7.9-34.23,14.26-50.67,7.36-19.07,16.9-36.88,30.34-52.42A101.63,101.63,0,0,1,800,456.47a5.88,5.88,0,0,1,1.75-.63c.12,0,.31.08.42.18s.17.29.13.34a16.43,16.43,0,0,1-1.52,1.8,138.79,138.79,0,0,0-13.33,13.78c-10.18,12.51-17.68,26.56-23.85,41.39A285.81,285.81,0,0,0,749.2,560c-2.51,11-4.73,22.17-7.22,33.23a317,317,0,0,1-12,41.87c-1.44,3.82-.68,6.75,2.21,9.49a107.83,107.83,0,0,0,16.16,12.74,128.13,128.13,0,0,0,33.2,14.7,18.49,18.49,0,0,0,5.66.84,3.53,3.53,0,0,0,3.17-1.82,27.47,27.47,0,0,0,3-8,4.44,4.44,0,0,0-1.92-5c-.94-.61-1.76-1.39-2.67-2a36.93,36.93,0,0,1-6.92-6.59,50.25,50.25,0,0,1-10.69-22.75c-.18-.9-.94-1.83.13-2.91.59,1.57,1.16,3,1.68,4.52A50.63,50.63,0,0,0,787.36,650a41.79,41.79,0,0,0,5.36,4c1.58,1,3.13.43,4-1.22a23.82,23.82,0,0,0,1.34-3.06q3.25-8.76,6.48-17.54c5.92-16,12.75-31.71,19.95-47.22a1.07,1.07,0,0,1,1.23-.79,6.38,6.38,0,0,1-.3,4.48c-.45,1.2-1,2.37-1.39,3.57q-6.1,17.16-12.17,34.33c-1.43,4.06-2.79,8.14-4.18,12.21A2.66,2.66,0,0,0,806.75,640.85ZM965.91,483.49c.18,1.75.37,3.49.55,5.24.56,5.55,1.37,11.11,1.07,16.7-.38,7.18-1.23,14.33-3.73,21.14a8,8,0,0,0,.05,5.59c.95,2.87,1.7,5.82,2.48,8.75,2.33,8.81,4.42,17.66,4.59,26.83a8.58,8.58,0,0,0,.16,1.43,1.64,1.64,0,0,0,1.11,1.41,1.45,1.45,0,0,0,1.6-.78q3.45-5.46,6.88-10.95c4.53-7.26,6.47-15.56,9.3-23.5a7,7,0,0,0,.11-1.9c1.1-2,.87-4.34,1.22-6.52a53.48,53.48,0,0,0-2.2-25.42c-4.55-13.82-13.86-23.72-26.09-31.13a4.69,4.69,0,0,0-1.35-.31C961.69,473.1,962.81,476.63,965.91,483.49ZM541.14,852.77c-.64,4.91-1.32,9.81-1.9,14.72a139.24,139.24,0,0,1-8.79,34.7c-5.27,13.44-11.57,26.31-20.22,37.93-1.81,2.43-3.76,4.76-5.63,7.15-1.74,2.23-1.57,3.33,1,4.35a42.43,42.43,0,0,1,6.77,3.57c6.79,4.28,11.39,10.17,12.93,18.19.3,1.56.37,3.16.56,4.74a1.31,1.31,0,0,0,1.62,1.28,14.78,14.78,0,0,0,1.86-.44,48.51,48.51,0,0,1,14.25-1.42,29.12,29.12,0,0,1,15.62,5.39,35.74,35.74,0,0,1,9.06,9.77c2.69,4,3,3.16,6.09,1.38a38.35,38.35,0,0,1,20.72-4.84c1.27,0,2.55.15,3.83.14,1.73,0,2.29-.37,2.71-2,1.43-5.72,3.21-11.37,4-17.25a74.69,74.69,0,0,1,3.16-14.43,46.06,46.06,0,0,0,2.54-16.49,12.36,12.36,0,0,1,.24-3.33c1.54-6.67,2.93-13.33,3.83-20.16,1.68-12.8,4.13-25.5,6.25-38.25.37-2.2.77-4.4,1.09-6.61a13.79,13.79,0,0,0-2.09-9.61c-1.43-2.3-2.72-4.7-4.05-7.07-6.75-12.09-11.59-24.82-13.34-38.68a64,64,0,0,1,.24-20.48c2.25-11.42,7.77-20.82,17.17-27.87a74.37,74.37,0,0,1,13.59-8c2.45-1.13,3.72-2.71,3.84-5.47a43.87,43.87,0,0,1,1-7.1c1.62-7.56,5.83-13,13.19-15.81A39.44,39.44,0,0,1,662,728.2a6.42,6.42,0,0,0,5.44-4c3.22-6.6,6.62-13.12,9.94-19.68a17.72,17.72,0,0,0,.72-2c-2.07,0-3.61.83-5.22,1.36-4.09,1.36-8.11,2.94-12.26,4.08-8.24,2.27-16.68,2.35-25.17,2.09-12.72-.39-25-3.21-37.08-6.87a16.74,16.74,0,0,1-8.83-6.24c-8.77-11.82-16.93-24-23.12-37.43-2.47-5.35-5.42-10.48-7.58-16a3.69,3.69,0,0,0-.55-.78c-.06-1.8-.91-3.37-1.51-5-3.52-9.59-6.73-19.27-9.48-29.11-.56-2-1-4-1.57-6-.12-.45-.37-.92-1-.85a1,1,0,0,0-.71.5c-.52,1-1,2-1.44,3-2.21,5.3-4.44,10.59-6.6,15.92-4.13,10.2-8.38,20.35-11.71,30.86a135.67,135.67,0,0,0-6.6,49.5,222.82,222.82,0,0,0,5.73,37.79c3.65,15.53,7.55,31,11.3,46.49A215.24,215.24,0,0,1,541,836C541,841.6,541.1,847.19,541.14,852.77Zm186.06-2.18a51.58,51.58,0,0,0,13.91-1,95,95,0,0,0,48.71-25.12c13.72-13.17,22.34-29.4,28-47.34a19.08,19.08,0,0,0,.66-3.77c.4-3.43-.62-6.38-3.49-8.4a17.78,17.78,0,0,1-4.46-4.94c-1.07-1.58-2.12-3.19-3.12-4.83-10.07-16.5-13.32-34.36-10.5-53.4.52-3.47,1.31-6.9,1.86-10.37.35-2.2-.58-3.33-2.85-3.49s-4.48-.06-6.71-.19-2.91-1.14-2.47-3.11c.24-1.09.67-2.14.91-3.23.48-2.2,0-2.94-2.25-3.18a86.57,86.57,0,0,1-13.18-2.41,73.92,73.92,0,0,1-15.58-6.1c-3.9-2.08-4.57-1.16-6.1,2.27-1.23,2.77-2.42,5.56-3.59,8.36-6.84,16.23-12.39,32.89-15.5,50.25-2,11.16-3.51,22.41-5.3,33.61a317.56,317.56,0,0,1-7.31,35.64Q713.25,820,707.56,840c-.44,1.54-1,3-1.34,4.6-.65,2.75,0,3.73,2.92,4.31.32.06.64.06,1,.12C715.14,850,720.25,850.17,727.2,850.59Zm-27.86-65c.46,11.33-9.11,20.89-20,21.3a29.5,29.5,0,0,1-17.31-4.58c-1.08-.68-2.16-1.36-3.26-2a1.05,1.05,0,0,0-1.43.79,5.34,5.34,0,0,0-.08,1.43,47.27,47.27,0,0,0,13.64,27.91c6.44,6.38,14.21,10.82,22.65,14.06a14.67,14.67,0,0,0,2.75.8A2.27,2.27,0,0,0,699,843.7c.23-.59.33-1.23.51-1.84,1.95-6.58,3.87-13.18,5.85-19.75,3.79-12.53,7.7-25,10.43-37.86,3.31-15.61,6.36-31.28,9.59-46.91,2.1-10.17,4.28-20.32,7.84-30.1a263.62,263.62,0,0,1,13.61-30.65c1-1.85,1.93-3.68,2.77-5.58,1.22-2.72.83-4.1-1.53-5.75-1.44-1-3-1.87-4.42-2.86-4.92-3.36-9-7.62-13.07-11.95-1-1.05-1.93-2.13-3-3.13a1.4,1.4,0,0,0-2.37.35,22.29,22.29,0,0,0-.93,2.2,56.26,56.26,0,0,1-5,9.82q-3.4,5.5-6.77,11a59.87,59.87,0,0,1-15.81,17.8,53.6,53.6,0,0,0-16.84,19.94c-2,4-4,8-6,12a56,56,0,0,0-2.2,5.31,2.81,2.81,0,0,0,1,3.42,36.09,36.09,0,0,0,4.07,2.5,36.12,36.12,0,0,1,6.87,4.33A45.88,45.88,0,0,1,695.53,751c3.55,7.4,5.38,15.06,2.54,23.17a6.48,6.48,0,0,0,.07,4.65A15.92,15.92,0,0,1,699.34,785.56ZM629.9,875.42a2.91,2.91,0,0,0-1.43,2.55c-1.71,9.58-3.29,19.18-5.11,28.73-1.34,7-2.29,14.15-4.38,21.06a28.92,28.92,0,0,0-1.34,9,16.26,16.26,0,0,1-.63,3.74c-.49,2.18-1,4.35-1.55,6.51-1.37,5.25-1.54,10.75-3.4,15.89a8.1,8.1,0,0,0-.22,2.38c-.07,2.31.18,2.82,2.29,3.6,3.48,1.27,6.79,2.8,9.43,5.49a5.48,5.48,0,0,0,4.35,1.61c1.91-.08,3.83-.21,5.74-.24A19.46,19.46,0,0,1,649,982.35c1.15,1.26,1.9,3.47,3.8,3.33,1.74-.12,2.67-2.13,3.88-3.38A37.47,37.47,0,0,1,679.32,971c4.71-.63,5.4-1.55,4.64-6.28-.71-4.4-1.67-8.77-2.26-13.19-1.12-8.38-2.18-16.78-.77-25.26.23-1.41.17-2.87.27-4.3a5,5,0,0,0-2.54-4.81c-1.34-.86-2.72-1.68-4.08-2.51a155.44,155.44,0,0,1-37.34-31.17C634.85,880.7,632.32,878.07,629.9,875.42Zm-9.51,105.8c-.8-.56-.39-1.43-.5-2.16a2.53,2.53,0,0,0-1.15-2c-2.24-1.19-4.51-2.36-6.83-3.39a1.77,1.77,0,0,0-2.35,1.11,26.7,26.7,0,0,0-1.19,3.64c-1.09,4-2.11,8-3.22,12-.81,2.92-1.77,5.8-2.57,8.73-1.05,3.87-.7,4.85,2.65,7.3,1.93,1.4,3.94,2.72,6,3.93,12.26,7.15,25.57,9.61,39.6,8.75a41.88,41.88,0,0,0,7.12-.89c9.63-2.3,18.15-6.9,26.2-12.47,2.09-1.45,4-3.24,6-4.81a4.51,4.51,0,0,0,1.59-5.14c-1.65-6.16-3.28-12.33-5-18.47-.61-2.16-1.75-2.92-3.94-2.58-4.11.65-8.19,1.48-11.66,4a13.62,13.62,0,0,1-3.82,1.89,19.8,19.8,0,0,0-8,5.08c-2.82,2.9-5,6.15-5.53,10.36-.15,1.21-.09,2.61-1.16,3.55a1.17,1.17,0,0,1-.77.05c-.17-.93-.29-1.88-.43-2.82-1.12-7.64-5.24-12.85-12.58-15.44a28,28,0,0,0-15.57-.61C622.28,981,621.4,981.51,620.39,981.22ZM836.65,774.14c-1.21-2.83-1.94-4.58-2.71-6.3-5.61-12.57-8.18-25.81-8.79-39.48a111.39,111.39,0,0,1,3.2-30.37,30.42,30.42,0,0,0,.73-4.23,2.22,2.22,0,0,0-1.79-2.48,15,15,0,0,0-2.33-.47c-4.58-.61-9.17-1.19-13.76-1.8-2.21-.3-4.41-.7-6.63-.94a2.89,2.89,0,0,0-3.26,2.21,16.52,16.52,0,0,0-.44,2.35,84.56,84.56,0,0,0,2.56,39.28c3.47,11.11,8.64,21.28,16.72,29.79A60.93,60.93,0,0,0,836.65,774.14Zm96.24-34c-1.57,2.09-1.66,4.32-1.81,6.49a2.54,2.54,0,0,0,2.32,2.62,27.75,27.75,0,0,0,7.6.67c.66,0,1.6.48,2-1C939.15,746.81,936.3,743.33,932.89,740.16Z"/><path class="cls-2" d="M406.71,120.74c-4.18.75-4.84.21-5.15-4.15-1.05-14.78-1.07-29.56-1.08-44.36a52,52,0,0,0,21-7c4.84-2.8,4.74-2.85,2.69-8.22-1.75-4.58-3.33-9.22-5-13.83a22,22,0,0,0,3.23.79c7.55.68,14,4.12,20.21,8.07A7.39,7.39,0,0,1,446,56c.52,1.66,1.32,3.26.33,5.06a3.43,3.43,0,0,0-.14,1.87,1,1,0,0,0,1.32,1,8.36,8.36,0,0,0,3.94-2.6c1.22-1.26,2.47-2.5,3.75-3.7.72-.68,1.42-.44,2.06.21a4.06,4.06,0,0,1,1.25,3c0,1.12,0,2.24.05,3.36,0,.85.24,1.62,1.15,1.86a2.07,2.07,0,0,0,1.78-.46c1.57-1.17,2.51-2.86,3.67-4.37a1.79,1.79,0,0,1,2.87.23,7.11,7.11,0,0,1,1,4.11c0,1.43.07,2.86.17,4.29a1.07,1.07,0,0,0,1.51.65,5.19,5.19,0,0,0,1.13-.88c1.33-1.58,2.55-3.26,3.95-4.77.83-.9,1.56-2.34,3-2.05,1.87.36,2.13,2.23,2.55,3.7a13.22,13.22,0,0,1,.16,3.34c0,2.07,0,4.15.07,6.23a1.81,1.81,0,0,0,.64,1.15,1,1,0,0,0,1.29-.18c1.74-1.64,3.45-3.31,5.17-5a18.16,18.16,0,0,0,4.95-8c.49-1.68.91-3.37,1.37-5.06a.81.81,0,0,1,1.46-.21,9.37,9.37,0,0,1,1.19,1.49c2.69,4.73,4.09,9.67,2.39,15.11a1.6,1.6,0,0,0,.58,2.09,2.33,2.33,0,0,0,2.3,0A11.3,11.3,0,0,0,504.87,76c1.82-1.59,3-3.81,4.66-5.42a18.26,18.26,0,0,0,5.82-11.21,4.77,4.77,0,0,1,.82-1.7c.34-.54.84-.37,1.18,0a3.62,3.62,0,0,1,.78,1.18c2.44,6,3.86,12.13,2.06,18.61-.18.64-.21,1.32.4,1.7s1.17-.13,1.72-.44c3.12-1.75,5.31-4.56,7.94-6.87,3.38-3,5.13-6.63,6.2-11,1.35-5.53.14-10.4-2.37-15.13-1.89-3.58-4.85-6.19-8.13-8.59A88.81,88.81,0,0,0,507.7,26.74c-7.07-3-14.46-5-21.78-7.12a115.33,115.33,0,0,0-15.82-3.41c-4.55-.66-9.05-1.61-13.64-2.07-3.31-.34-6.55-1.4-9.85-1.55-3.05-.14-5.9-1.33-9-1.13a64.27,64.27,0,0,1-9.1,0c-3.79-.29-7.57-.79-11.32-1.43a29.1,29.1,0,0,0-13.22.75c-.21.06-.37.45-.46.72s.09.62.47.72a3.49,3.49,0,0,0,.92.21c3.71-.33,7.26.83,10.89,1.21a132.83,132.83,0,0,1,15.91,2.93c2.26.53,4.74.65,6.88,2.26-.57.12-1,.39-1.39.27-2.94-1.07-6-.81-9-.87a16.2,16.2,0,0,1-4.26-.44,14.5,14.5,0,0,0-3.78-.46c-7.66,0-15.33,0-23-.06a3,3,0,0,0-1,.05c-.28.09-1-.18-.71.69,10.91,1.59,21.79,3.33,32.36,6.6-6.27,1-12.36-.91-18.55-.87-3.09-1.16-6.31-.59-9.49-.64a2.13,2.13,0,0,0-1.64.84l-3.78.35c-4.26-.6-7.91,1.14-11,3.59a48.06,48.06,0,0,0-7.73,7.82c-6.31,7.91-8.88,17.54-11.92,26.94a3.55,3.55,0,0,0-.08.47,4.08,4.08,0,0,0,2,4.51c2.33,1.38,4.67,2.83,7.59,2.4.72.31,1.43.69,2.18.94a51.2,51.2,0,0,0,14.5,2.14c.94,7.25.53,14.55.75,21.83-4.81.42-9.51-.69-14.2-1.36-4.22-.6-8.34-2-12.6-2.52a1.8,1.8,0,0,1-.86-.37,1.2,1.2,0,0,1-.45-.76.78.78,0,0,1,.53-.57,9.46,9.46,0,0,1,4.26.31c2.32.87,4.74.49,7.11.44a2.85,2.85,0,0,0,2.84-2c-2.61.62-4.68-.4-6.86-.69-4-.55-4-.49-6-2.09,1.6,0,2.86,0,4.12,0a1.58,1.58,0,0,0,1.1-.67c.3-.55-.24-.87-.69-1-1.7-.41-3.43-.7-5.12-1.14-2.69-.69-5.58-.8-8.69-2.91,5.62.4,10.32-.6,15.06-1.46-1.74-.32-3.5-.23-5.19-.53a120.36,120.36,0,0,1-22.07-6,36.07,36.07,0,0,1-5.57-2.76A8.63,8.63,0,0,1,333,59.51c.27-1.47,1.72-3.34-.06-4.23-1.4-.7-2.72,1.23-4,2.06a13.46,13.46,0,0,0-2.62,2.75c-.62.72-1.08,1.58-1.72,2.27-.85.94-1.93.79-2.92-.13-1.5-1.39-1.52-3.1-1.09-4.86.37-1.55,1-3,1.35-4.57a1.34,1.34,0,0,0-1-1.46,1.93,1.93,0,0,0-1.34.06c-1.36.69-1.92,2.06-2.62,3.32-1.09,1.94-2.25,3.85-3.4,5.76a1.59,1.59,0,0,1-2.07.68,1.77,1.77,0,0,1-1.29-2.25c1.17-3.36-.17-7,1.3-10.37.12-.25-.28-.92-.61-1.13a2.26,2.26,0,0,0-1.35-.1,1.74,1.74,0,0,0-.83.45c-2.59,2.37-5.29,4.64-6.66,8a8.31,8.31,0,0,1-2.31,3.59c-.48.39-1,.93-1.67.47a1.66,1.66,0,0,1-.64-1.14,31.92,31.92,0,0,0-.91-7.57,8.42,8.42,0,0,1,.32-5.18,14.52,14.52,0,0,0,.49-2.8c.47-.15.55-.3.22-.38,0,0-.14.25-.21.38a8,8,0,0,0-7.16,4.09c-1.37,2.15-2.51,4.42-4.42,6.19a3,3,0,0,0-.87,2.17c0,1-.08,1.92,0,2.87.1,1.41-.39,2.95.54,4.19.76,1,2.13.37,3.12.88.12.06.31.22.29.28-.08.29-.15.7-.35.82a13.77,13.77,0,0,1-15.14-1.92c-.17-.16-.14-.53-.25-1,2.16.09,3.94,1.13,5.82,1.86,1.4.55,2.06.07,2.12-1.49,0-.64,0-1.28,0-1.92.05-3.69.08-7.35-2.33-10.52a4.1,4.1,0,0,1-.5-2.29,16.81,16.81,0,0,1,.38-5.23c.37-1.26-.09-1.76-1.4-1.82-1.52-.07-3,0-4.76,0a9.12,9.12,0,0,1-2.71,8.39c-.55.51-.7,1.43-1.15,2.08-1.64,2.35-3.3,4.69-5,7A1.8,1.8,0,0,1,261,58a4.37,4.37,0,0,1-1.77-2.21c-1.33-4.85-2.18-9.7.91-14.25,1-1.46.81-3,.7-4.62a.81.81,0,0,0-.57-.55,1,1,0,0,0-.79.37,19,19,0,0,1-7.56,8.41,8.86,8.86,0,0,0-2.38,2.35c-3.19,4.4-6,9-7.43,14.32a11.53,11.53,0,0,0,0,6.14,26.3,26.3,0,0,0,3.1,7c4,6.22,9.8,10.43,16.07,14,8.36,4.73,17.37,7.79,26.69,10.23A332.21,332.21,0,0,0,324,106.32a60.35,60.35,0,0,0,8,1.08c5.9.07,11.7,1.57,17.63,1a2.52,2.52,0,0,1,.95.07c3.57,1.26,7.28.71,10.93.86a25,25,0,0,1,5.71.38c3.84,1,7.73.51,11.63.12-13.29-3.44-26.95-5.1-40.81-8.67a11,11,0,0,1,5.32-.06,90.69,90.69,0,0,0,11.8,1.43c8.94.21,17.9.09,26.85.07.86,0,1.84.34,2.93-.75-4.55-.28-8.69-1.32-12.88-1.87s-8.48-1.41-12.65-2.34-8.32-1.26-12.73-3.36a7,7,0,0,1,2-.19,23.25,23.25,0,0,0,7.56.87,7.88,7.88,0,0,1,2.84.27c2,.76,4.09.6,6.15.66a14.1,14.1,0,0,1,3.81.19c3,1,6,.66,9,.77,4.3.16,8.62-.34,12.91.37.17,5.87.37,11.74.51,17.6.12,5.33-.8,6.24-6,6-1.41-.07-2.82-.27-4.23-.4a3.17,3.17,0,0,0-2.84-1.46c-2.24,0-4.47,0-6.71,0-7.19,0-14.37,0-21.56,0a37.14,37.14,0,0,0-9,.72,10.18,10.18,0,0,1-7.47-.75,5.76,5.76,0,0,0-2.7-.86c-3.21.08-6.32-.64-9.47-1-2.84-.29-5.7-.55-8.52-.79-3.65-.31-7.23-1.12-10.89-1.2a52.32,52.32,0,0,1-7.05-1.15c-7.66-1.25-15.31-2.72-22.86-4.56A186.39,186.39,0,0,1,238.82,98a80.7,80.7,0,0,1-16.72-10,31.52,31.52,0,0,1-10.83-17.06,12.29,12.29,0,0,1,0-5.69,36.07,36.07,0,0,1,8.48-15.83,52.91,52.91,0,0,1,9.43-8.05,103.78,103.78,0,0,1,16-9.5,31,31,0,0,0,6.27-3.48c2-1.55,4.46-1.88,6.75-2.19,4.7-.63,8.87-2.58,13-4.51A59.62,59.62,0,0,1,289,16.17a59.05,59.05,0,0,0,11.11-2.63,138,138,0,0,1,24.59-5.65c5.8-.79,11.57-1.94,17.46-2.24,3.15-.15,6.25-1.16,9.39-1.44,4-.35,7.82-1.5,11.83-1.35A26.65,26.65,0,0,0,369,2.28a60.47,60.47,0,0,1,8.1-.38c1.44,0,2.88,0,4.3-.15.9-.1,1.24-.9,1.33-1.75h3.84a2.35,2.35,0,0,0,2,1l18.91,0A2.54,2.54,0,0,0,409.62,0h16.31c.23.2.44.54.7.59a25.8,25.8,0,0,0,9.19,0c.25-.05.44-.41.66-.62h1.92a1.78,1.78,0,0,0,1.81,1.83c1.59,0,3.19,0,4.79.08,4.13.15,8.23.22,12.38.7s8.19,1.22,12.32,1.2c1.82,0,3.42.74,5.16.94a264,264,0,0,1,36.48,7A168,168,0,0,1,540.62,22,64.27,64.27,0,0,1,563,38.81c5.54,6.64,6.16,14,2.88,21.94-1.85,4.46-5.2,7.59-8.65,10.69-1.84,1.65-1.86,1.62-.9,3.82.59,1.33.19,2.19-1.13,2.35a9.39,9.39,0,0,1-1.91,0,6,6,0,0,0-5.12,2,26.31,26.31,0,0,1-6.71,4.55,199.86,199.86,0,0,1-38,15.68c-12.52,3.66-25,7.38-37.9,9.6-5.94,1-11.82,2.43-17.75,3.51-3.12.56-6.31.74-9.46,1.17-3.77.51-7.52,1.1-11.29,1.67a5.11,5.11,0,0,1-.94.15c-5-.28-9.77,1.56-14.75,1a7.71,7.71,0,0,0-1.44,0C407.56,117.23,407.28,117.55,406.71,120.74Z"/><path class="cls-3" d="M409.62,0a2.54,2.54,0,0,1-2.07.92L388.64,1a2.35,2.35,0,0,1-2-1Z"/><path class="cls-4" d="M571.52,1038c1.74.07,3.47.18,5.21.2,2.69,0,5.39,0,8.07,0a2.21,2.21,0,0,1,.38.73H570.79C571,1038.64,571.27,1038.31,571.52,1038Z"/><path class="cls-3" d="M436.48,0c-.22.21-.41.57-.66.62a25.8,25.8,0,0,1-9.19,0c-.26,0-.47-.39-.7-.59Z"/><path class="cls-5" d="M994.92,531.38c0-2.25-.39-4.54.84-6.62v6.71Z"/><path class="cls-5" d="M995.76,514.2c-1.27-1.76-.89-3.76-.81-5.71a3.67,3.67,0,0,1,.81,0Z"/><path class="cls-6" d="M320.56,660q.36,9.62.71,19.24c-1.53,2-1.07,4.4-.6,6.44a41.79,41.79,0,0,1,.7,8.54c0,1.44-.26,3,.12,4.3,1,3.45.52,7,.92,10.43.55,4.59.61,9.21,1.12,13.77.31,2.84.67,5.67.75,8.53a17.52,17.52,0,0,0,.21,1.9c.55,3.76,1.16,7.51,1.65,11.28.44,3.46.4,7,1.24,10.39,1,4.06.19,8.3,1.63,12.26,0,5.9,1.19,11.67,1.79,17.5.69,6.81,2,13.51,3.34,20.18a169,169,0,0,0,7.77,27.52c4.69,12.35,9.74,24.56,14.5,36.88q4.74,12.24,9.1,24.63c2.66,7.51,5.1,15.09,7.62,22.65.46,1.35.7,2.81,2.09,3.62-1,1.21-2.06,2.41-3.06,3.64-.51.62-.88,1.35-1.42,1.93-2.8,3.08-4.88,2.53-6.88.32a16.9,16.9,0,0,0-5.76-4.2c-8.82-4-16.79-2.46-24.05,3.68-1.1.93-2.06,2-3.09,3a4.29,4.29,0,0,1-5.69.65,58.81,58.81,0,0,0-7.24-3.71,14.94,14.94,0,0,0-7-1.5,7.27,7.27,0,0,1-2.38-.1,20.55,20.55,0,0,0-11.32.27,77.55,77.55,0,0,0-1.5-7.93c-1.79-6.12-3.76-12.18-5.73-18.23-2.36-7.28-4.87-14.51-7.19-21.8-2.95-9.27-6.54-18.3-10.2-27.3-2.22-5.46-4.75-10.8-6.92-16.28-4.5-11.42-9.12-22.78-14.64-33.76-.71-1.42-1.23-2.94-1.9-4.38-2.47-5.36-4.67-10.87-7.52-16s-5.56-10.42-8.19-15.7c-7.47-15-14.91-30-22.92-44.75-2.52-4.63-4.88-9.34-7.45-13.92-4-7.1-8-14.17-11.61-21.45-.57-1.15-1.12-2.3-1.74-3.42-4.92-8.94-10-17.81-14.76-26.81-5-9.43-9.86-19-14.76-28.47q-5-9.57-9.89-19.14c-4.44-8.64-9.44-17-13.29-26-3.26-7.61-7.22-14.93-10.68-22.47q-4.7-10.23-8.54-20.77c-4.52-12.45-7.28-25.35-9.4-38.38-.36-2.19-1.07-4.35-1.06-6.58,0-5.1-1.53-10.09-1.06-15.23a3,3,0,0,0-.15-1.42c-1-2.3-.72-4.71-.73-7.1q-.06-23-.08-46c-.25-5,1.27-9.8,2.26-14.63,1.79-8.76,3.1-17.59,4.14-26.46a12.29,12.29,0,0,0-.11-2.84c0-.22-.4-.5-.66-.56a1.19,1.19,0,0,0-.88.19,4.15,4.15,0,0,0-.93,1.07,109.08,109.08,0,0,0-14.21,37.39,216.86,216.86,0,0,0-3,28.55c-.67,13.72-2.11,27.36-5.6,40.71a116.16,116.16,0,0,1-7.85,21.57c-2,4.16-4,8.34-6.28,12.39-1.55,2.81-1.77,5.32.12,8,2.61,3.74,3.81,8,4.76,12.45a20.86,20.86,0,0,1-2.74,15.64A35.48,35.48,0,0,1,69.16,561c-3.52,3.49-7.09,6.92-10.56,10.45a35.44,35.44,0,0,0-7.49,11c-2.3,5.39-2,10.9-.68,16.43a59.29,59.29,0,0,1,1.62,15.19c-.1,6.22-3,10.62-8.41,13.44a32.64,32.64,0,0,1-7.49,3.14,1.68,1.68,0,0,0-1.43,1.65A3.14,3.14,0,0,1,32,634.08a29.28,29.28,0,0,1-4.29.06c-1.16-.11-3,.47-3.17-1.14-.1-1,1.77-1.08,2.76-1.35,2-.56,3.7-1.83,5.61-2.59l.68-.73-.1.1a8.81,8.81,0,0,0,3.29-4.94,39.07,39.07,0,0,0,1.76-7.7,7.27,7.27,0,0,0,1.63-2.87c1.48-3.51,1-7.21,1.07-10.85s.12-7-1.8-10.19a13.2,13.2,0,0,1-1.06-3.16c-2.21-7.47-4.57-14.87-8.15-21.85-1.81-3.52-3-7.36-4.65-11-1.56-3.39-1.48-7.12-2.43-10.62,1.11-3.12.6-6.58,2.44-9.63a50.78,50.78,0,0,1,6-8.56,26.42,26.42,0,0,0,5.21-7.34c.19-.25.33-.61.58-.73,5.93-2.92,12-4.95,18.76-3.44,2.35.53,2.65.36,3.76-1.74a236.07,236.07,0,0,0,10.94-24.28c.93-2.36,2-4.65,3-7a4.17,4.17,0,0,0,2-2.55A222.08,222.08,0,0,0,84,455.55c1.82-6.92,3.78-13.82,5.13-20.83,1.89-9.81,4-19.59,5.1-29.55.62-5.51,1.81-10.95,2.84-16.41A193.51,193.51,0,0,1,105.61,357a73.48,73.48,0,0,1,6.24-13.43,9.43,9.43,0,0,0,1.47-4.92,17.57,17.57,0,0,0,5.66-7.59c3.22-7.67,7.48-14.79,11.38-22.09,6.39-12,13.13-23.71,20.4-35.14,2-3.09,4.09-6.07,6.15-9.1,1.88.07,3.32-.9,4.76-2,10.23-7.58,20.46-15.16,31.33-21.85,7.88-4.85,15.81-9.59,24.09-13.74,10-5,19.92-10.14,30.2-14.53a320.72,320.72,0,0,1,43.35-14.85,325.87,325.87,0,0,1,45.3-9c2.65-.31,5.34-.7,8-1.09,4.24-.62,8.48-1.32,12.75-1.56,8.42-.49,16.86.2,25.32-.87,9.2-1.16,18.42,1.15,27.68.88a10.52,10.52,0,0,1,1.41.26c4.08.53,8.16,1.32,12.27,1.5a114.22,114.22,0,0,1,17,2c8.57,1.68,17.17,3.26,25.65,5.3,9,2.16,17.91,4.41,26.8,6.88,12.61,3.49,25,7.65,37.21,12.23Q545,220,559.87,226q17.46,7.16,34.75,14.76c9.19,4.05,18.32,8.25,27.33,12.69,10,4.94,20.17,9.63,29.84,15.27,7.85,4.58,15.9,8.82,23.72,13.43,8.92,5.27,17.72,10.73,26.35,16.48,12.33,8.21,24.46,16.7,36.18,25.76a3.08,3.08,0,0,1,1.54,2.76c-1.18.12-2.14-.52-3.18-.92-11.76-4.6-23.78-8.39-36.31-10.18a112.07,112.07,0,0,0-26.72-.69,133.65,133.65,0,0,0-38.31,9.86,93.06,93.06,0,0,0-13.23,6.66c-2.71,1.65-5.63,2.95-8.46,4.41a5.45,5.45,0,0,0-1.67.9c-2.92,3.33-6.94,5-10.59,7.28a26.9,26.9,0,0,0-5.92,4.81,28.69,28.69,0,0,1-6.63,5.48c-4.63,2.71-8.23,6.53-11.89,10.3-2.11,2.18-4,4.56-6.77,6a2.87,2.87,0,0,0-.73.62c-6,6.17-12.06,12.32-18,18.53-2.77,2.88-5.41,5.87-8.09,8.83a5.2,5.2,0,0,0-1.79,3.45c2-1.81,3.51-3.13,5-4.48,3.06-2.8,6.1-5.62,9.18-8.4a9.06,9.06,0,0,1,3.54-2.4l.75.73c-.39,3.52-1.66,6.81-2.68,10.16-3.5,11.45-6.95,22.91-9.53,34.6-3,13.71-5.7,27.48-7.49,41.42-1.32,10.3-2.3,20.6-3,31-.61,9.42-.8,18.83-.49,28.24.35,10.52,1,21,2.36,31.49,1.09,8.39,2.19,16.76,4,25a19.82,19.82,0,0,1-1.44,12.65c-2.45,5.38-4.86,10.77-7.44,16.08a335.45,335.45,0,0,0-14,32,155.85,155.85,0,0,0-7.85,31.52c-1.15,8.12-1,16.24-.68,24.38a68.62,68.62,0,0,0,1,8.07c1.2,7.56,1.66,15.23,3.42,22.71a7.65,7.65,0,0,1,.15.94,1.92,1.92,0,0,1-1.69,2.42,30.32,30.32,0,0,1-3.76.7c-7.62.72-15.2,1.83-22.85,2.36-6.54.45-13.07.77-19.61.71a168.4,168.4,0,0,1-38.4-4.68,113.21,113.21,0,0,1-45.58-22.43,138.84,138.84,0,0,1-12.4-12c-1.08-1.14-1.92-2.57-3.46-3.29-.82.79-.05,1.46.23,2a33.9,33.9,0,0,0,5.16,7.46c1.16,1.31,2.21,2.71,3.31,4.06a78.58,78.58,0,0,0,.18,9.09c.78,6,1.76,11.91,2.95,17.81,1.12,5.6,1.76,11.27,2.68,16.89q1.15,7,2.47,14c.69,3.74,1.6,7.45,2.22,11.2,1.12,6.72,2,13.48,3.15,20.19,1.11,6.56,2.34,13.1,3.65,19.63,1.71,8.54,3.53,17.07,5.33,25.6,1.34,6.37,3.05,12.65,4.5,19,3.19,13.93,6.87,27.74,10.32,41.61a3,3,0,0,0,1.29,1.9c-1.28,1.13-2.64,1.77-4.33.83a10.45,10.45,0,0,0-4.13-1.08,8.17,8.17,0,0,1-7.41-5.9c-.62-1.81-1.19-3.64-1.67-5.49-5.78-22.62-13.32-44.69-21.46-66.55-8.7-23.35-18.42-46.3-27.59-69.47A356.53,356.53,0,0,1,329.3,697a225.62,225.62,0,0,1-3.39-27.08c-.51-8.77-1.24-17.52-1.87-26.28-.08-1.12-.1-2.24-.11-3.36a8.47,8.47,0,0,1,2.45-6.06c.77-.81,1.57-1.6,2.39-2.36a87.48,87.48,0,0,0,17.7-23.7,3.38,3.38,0,0,0,.35-1.36c0-.22-.28-.48-.49-.67a.45.45,0,0,0-.45,0,2.84,2.84,0,0,0-.68.66c-1.77,2.61-3.51,5.23-5.28,7.84a21.41,21.41,0,0,1-1.75,2.27,159.44,159.44,0,0,1-28.12,25.24,20.49,20.49,0,0,1-6.32,3.33,18.81,18.81,0,0,0-5.6,2.65c-1.46,1-3.1,1.65-4.59,2.58-.74.47-2,.43-2.08,1.66-.07.71,1.3.63,2.91,0,4.09-1.71,8.24-3.14,12.15-5.39,3.41-2,7.2-3.4,10.75-5.21a2.08,2.08,0,0,1,1.1,2.42c-.4,2.18-.95,4.33-1.36,6.51-.63,3.31-2.13,6.3-3.31,9.42-.57,1.48-1.11,3-1.59,4.48-.23.7.26,1.21.77,1.61a1.34,1.34,0,0,0,1.75-.07,10.7,10.7,0,0,0,2.88-3.15A6.13,6.13,0,0,1,320.56,660Z"/><path class="cls-5" d="M401.71,975.56c-3.08-.13-6,.83-9,1.38a199.83,199.83,0,0,1-20.4,2.73c-6.38.51-12.75.81-19.15.78-19.54-.09-37-6.21-52.56-17.94a13,13,0,0,1-5.42-9.13c-.87-6.16-1.83-12.31-3.26-18.39-.88-3.71.15-5.32,3.75-6.51a31.13,31.13,0,0,1,16.11-.59,39,39,0,0,1,12,4.79c2.33,1.37,2.61,2.13,1.88,4.72-.61,2.15-1.49,4.24-1.4,6.53,0,1.1,0,2.28,1.34,2.93a6.85,6.85,0,0,0,.37-1.23c1-9.26,6.28-15.59,14.16-19.79,8.06-4.31,18.08-1.92,24.28,5.32a31.87,31.87,0,0,1,6.84,13.57c.33,1.37.34,2.85,1.4,4a10,10,0,0,0,.49-8.76c-.58-1.66-1.33-3.26-1.91-4.91a4.78,4.78,0,0,1,.66-5c4.54-5.23,9.43-10,16.21-12.32,6.95-2.36,8.85-1.43,10.73,5.46a179,179,0,0,1,5.76,31c.22,2.38.23,4.79.26,7.18,0,3.68,0,7.35,0,11C404.81,974.55,403.36,975.17,401.71,975.56Z"/><path class="cls-5" d="M492.3,958.32a3.63,3.63,0,0,0,3.1-.91c.68-.67,1.3-1.4,2-2.09,2.81-2.91,3.5-2.89,7-1.1,4.95,2.5,8.87,6.23,12.42,10.33,4.55,5.24,6.53,11.26,4.49,18.21-.08.26.08.58.14.9,1.16.6,2.12-.25,3.1-.56a56.08,56.08,0,0,1,9.33-2.05c12.78-1.65,22.8,3.34,30.69,13,4.76,5.81,6.44,12.72,5.84,20.19,0,.59-.36,1.19.28,1.88a11.4,11.4,0,0,0,2.06-6.74c0-2.55-.15-5.1-.36-7.64a3.72,3.72,0,0,1,2.35-4.21,41.93,41.93,0,0,1,21.93-3.71c1.87.19,2.51,1.07,2.25,2.91a20.92,20.92,0,0,1-.58,2.81c-2.69,9.52-5.54,19-8.77,28.34-.26.76-.5,1.52-.81,2.26a4.38,4.38,0,0,1-4,2.92,41,41,0,0,1-7.18,0c-21.3-2.8-41.37-9.22-59.59-20.85a99.76,99.76,0,0,1-25.21-23.28c-4.6-5.93-9-12-13.21-18.18C483.7,966.48,487.57,962,492.3,958.32Zm77.32,62.31c-.14-.41-.43-.55-.75-.27s-.49.53-.45.77a.47.47,0,0,0,.77.28C569.4,1021.24,569.48,1020.89,569.62,1020.63Z"/><path class="cls-5" d="M434.5,939.48a30.4,30.4,0,0,0-9.56,4A31.87,31.87,0,0,1,409.52,948c-1.61.1-2.36-.59-2.51-2.21-.29-3.17-.22-6.36-.74-9.53-.85-5.19-1.88-10.34-3-15.47-1-4.57,0-5.52,4.61-4.4,3.27.79,5,1.78,8.48,5,1.09-1,.06-2,.2-3.06.2-1.52.87-2.39,2.41-2.42,2.07,0,4.15.07,6.21.23a5.44,5.44,0,0,1,4.71,3.55,30,30,0,0,1,1.8,7.4c.41,2.52.75,5,1.1,7.57.15,1.17.48,2.18,1.73,2.6C434.49,938,434.49,938.73,434.5,939.48Z"/><path class="cls-1" d="M33.63,628.33l-.68.73C33,628.66,33.09,628.28,33.63,628.33Z"/><path class="cls-2" d="M377.41,120.35a6,6,0,0,1-4.09.31C374.6,119.47,376,119.92,377.41,120.35Z"/><path class="cls-2" d="M899.7,918.65a6.53,6.53,0,0,1-.64-.65.77.77,0,0,1-.1-.46c-.07-2.58,4-7,6.68-7.09a1.47,1.47,0,0,1,1.56.83,1.76,1.76,0,0,1,0,1.35,15.91,15.91,0,0,1-6.63,6A3,3,0,0,1,899.7,918.65Z"/><path class="cls-4" d="M960.3,527.64a41,41,0,0,1-1.57,8.7c-.5,1.79-.87,3.62-1.3,5.43a3.77,3.77,0,0,1-.23,1.38c-1.82,3-1.83,6.24-1.75,9.54,0,1.25.08,2.5.13,3.75-5.39-.75-9.12-4-12.39-8.06-.76-.93-1.08-2.33-2.51-2.62-.12.15-.27.26-.26.36.63,10.19,6.61,14.56,14,14.89.63,0,1.26.09,1.89.14,0,1.59,0,3.19.12,4.78s-1.58,2.46-1.57,3.9,1.79,2.17,2.22,3.56a3.44,3.44,0,0,1,.2.93c0,3.52.45,7.12-.18,10.52a72.47,72.47,0,0,0-.68,10.47c-.09,2.38.15,4.78-.73,7.11a11.93,11.93,0,0,0-.24,2.84c-.38,3.64-.69,7.28-1.22,10.89-.79,5.34-1.7,10.65-2.62,16-1,5.81-2.11,11.6-5,16.83-1.61-1-3.24-2-4.83-3.09A112.47,112.47,0,0,0,928.59,638c-2.71-1.34-5.35-2.8-8.43-3.3a13.74,13.74,0,0,1-4.45-1.71c-3.11-1.76-6.52-2.41-10.28-3.15,1,1.85,2.09,3,4,3.09a6.73,6.73,0,0,1,3.52,1.38,15.36,15.36,0,0,0,4.37,1.86,11.65,11.65,0,0,1,4.27,2.08c2.83,2.42,6.19,3.92,9.29,5.87,4.87,3.05,9.76,6.08,14,10.08a15.64,15.64,0,0,1-.55,6.33,13.48,13.48,0,0,0-.27,3.62c.2,2.89-1.87,5-2.67,7.53-.32,1-1.84,1.22-2.91.41a36.63,36.63,0,0,0-6.54-4,2.21,2.21,0,0,0-2-.34,6,6,0,0,0,2.29,3.32l4,3.41a3.31,3.31,0,0,1,1.33,3.37c-1.13,5.5-1.09,11.1-1.34,16.67a29.11,29.11,0,0,1-.83,4.7c-.41,1.93-.85,2.18-2.58,1.37a91.1,91.1,0,0,0-10.95-4.81,18.12,18.12,0,0,0-8.74-1.06,11.43,11.43,0,0,0,4.29,2.37A83.18,83.18,0,0,1,930.53,704a20.9,20.9,0,0,1,2.65,2,2.87,2.87,0,0,1,1.06,2.56c-1.12,7.57-2.09,15.16-3.94,22.59a1,1,0,0,1-1.54.48c-1.48-1.46-2.9-3-4.38-4.42a27.67,27.67,0,0,0-12.1-7.29c-.23,1,.6,1.33,1.1,1.8,3.12,3,6.32,5.85,9.41,8.85a36.94,36.94,0,0,1,4.13,4.63,8.7,8.7,0,0,1,.14,10.29,1.91,1.91,0,0,1-2,1,17.25,17.25,0,0,0-2.3-.51c-.5,0-.77.66-.54,1.07a9.9,9.9,0,0,0,1.47,1.84c2.29,2.43,2.34,2.69,1,5.86-.32.73-.61,1.47-.91,2.2a2.31,2.31,0,0,0-2.14,1.62c-.52,1.33-1,2.67-1.56,4a3.23,3.23,0,0,1-3.41,2.09c-1.62-1-3.25-1.92-4.87-2.9-3.1-1.88-6.23-3.67-9.89-4.34-.36,1.06.44,1.48.95,1.93,1.66,1.47,3.37,2.87,5.08,4.28,2.31,1.91,4.79,3.64,6.43,6.24a16.62,16.62,0,0,1-2.82,9.43,115.74,115.74,0,0,0-6.59,11.57c-.61,1.27-1,2.68-2.24,3.59-1.26-.37-2-1.48-3-2.2s-2.16-1.83-3.71-1.74l-.24-.23.29.18c-.42,1.4.38,2.3,1.28,3.16s2.36,1.48,2.58,3c-1.19,5.19-4,9.54-7.07,13.77-2,2.81-4.29,5.48-6.07,8.43a21.39,21.39,0,0,1-4.33,5.47c-1.2-.37-2.41-.73-3.6-1.12-.89-.29-1.93-.86-2.54.2-.51.89.55,1.29,1.09,1.79l2.4,2.28c-.43,1.82-2,2.86-3,4.26-5,7-10.22,13.82-16.42,19.82-4.35,4.21-8.51,8.6-13.2,12.47-2.93,2.42-5.76,5.07-8.78,7.35a203.37,203.37,0,0,1-24.14,16.25A164.59,164.59,0,0,1,794,897.3a86.45,86.45,0,0,1-9.49,3.15c-5.09,1.29-10.16,2.59-15.22,4-6.26,1.73-12.62,3.29-19.22,3.12a3.93,3.93,0,0,0-1.42.12c-2.94,1.08-6,.84-9,.78-5.56-.11-11.12.38-16.67-.79-2.91-.62-6-.5-9-.92a128.49,128.49,0,0,1-33.35-9.63,171.36,171.36,0,0,1-36.88-21.94c-3-2.29-6.43-4.21-8.31-7.78-.67-1.28-2.17-1.15-3.45-1.21a9.66,9.66,0,0,1-2.13-1.87c-5.06-8.09-10.55-15.93-14.62-24.62-3.75-8-6.66-16.25-7.74-25a70.1,70.1,0,0,1,.92-24.71c2.1-8.92,7.35-15.78,14.39-21.39a99.26,99.26,0,0,1,9.58-6.28c2.79-1.74,5.51-2.38,8.47-.61l-.06-.07a2.84,2.84,0,0,0,.92,2.05.49.49,0,0,0,.38.08c.11,0,.26-.25.24-.31-.24-.56-.51-1.11-.78-1.66,1.71-2,2.19-4.54,3.48-6.71a21.73,21.73,0,0,1,9.22-8.77c7-3.41,13.84-2.35,20.19,1.16a38.32,38.32,0,0,1,14.22,13.91c1.39,2.3,2.67,4.67,4,7,.65,3.77,2,7.37,2.5,11.19a23.17,23.17,0,0,1-.47,9c-1.56,6-5.38,9.93-11.26,11.25-10.69,2.41-19.93-.37-27.09-9a36.74,36.74,0,0,1-4.52-6.76c-.34-.64-.48-1.6-1.7-1.56a14.88,14.88,0,0,0,2,7.24,17,17,0,0,1,1.6,13.42A5.75,5.75,0,0,0,654,807c.59,1.65,1.21,3.3,1.69,5,1,3.66.17,5.62-3.1,7.62-1.19.73-2.83.65-3.68,2.08.56,1.08,1.39.35,2,.14,4.21-1.59,7.59-.14,10.3,3a84.74,84.74,0,0,1,5.33,7.37,2.1,2.1,0,0,1-.49,3c-.86.71-1.86,1.24-2.75,1.92-.62.47-1.45,1-1,1.92s1.28.67,2.05.24a25.62,25.62,0,0,1,2.57-1.28,5.92,5.92,0,0,1,5.94.6c2.33,1.67,4.57,3.49,6.78,5.31.87.71.79,1.56,0,2.49-.64.7-1.34,1.35-2,2.08a1,1,0,0,0,0,.88,1.15,1.15,0,0,0,.78.43c1,.14,1.81-.54,2.65-1a9.21,9.21,0,0,1,8.74.07c2.71,1.36,5.39,2.79,8.07,4.2.68.35.69,1,.59,1.64s-.85,1.43-.19,2.23c8.06-3.13,6.6-2.46,15.17-.7a47,47,0,0,0,7.08,1.21c1.5.08,2,1,1.43,2.25s-1.38,2.53-2,3.85a20.34,20.34,0,0,0-.76,2.7c1.15.56,1.61-.23,1.94-.83,3-5.42,7.78-7.75,13.81-8,2.87-.13,5.72-.61,8.58-.87,1-.09,1.49.52,1.15,1.48-.6,1.65-1.27,3.27-1.9,4.91s-1.2,3-1.69,4.48c-.43,1.3-1.32,3.23,0,3.8s2.25-1.44,3-2.59a24.11,24.11,0,0,0,1.89-3.85,28.8,28.8,0,0,1,3.65-6.72,16.64,16.64,0,0,1,10.94-6.27c1.66-.27,2.43.61,1.9,2.27a59.58,59.58,0,0,0-2.21,8.82,11.87,11.87,0,0,0,0,4.75c.11.4.55,1,.83,1a1.66,1.66,0,0,0,1.08-.81,17.12,17.12,0,0,0,2.11-6.32,25.39,25.39,0,0,1,12.55-17.82,97.73,97.73,0,0,0,37.42-40.13,114.51,114.51,0,0,0,8.26-21.43c.17-.62.28-1.25.46-1.86,1.23-4.15,2.08-4.65,6.16-3,4.62,1.88,9.27,3.47,14.29,3.8a2.53,2.53,0,0,0,1.83-.26c.38-.67,0-1.23-.33-1.76-6.54-11.88-10.56-24.64-13-37.91a120.41,120.41,0,0,1-1.64-22c0-7,.2-14.06.32-21.09a15.34,15.34,0,0,1,.11-1.92c.3-2.11,1.63-3,3.75-2.46a20.91,20.91,0,0,1,2.24.84c.9.34,1.78.73,2.7,1,2,.55,3,.13,3.95-1.65a19.28,19.28,0,0,0,1.14-2.64c3.34-9.32,6.72-18.63,10-28a80.57,80.57,0,0,0,2-7.89,109.57,109.57,0,0,1,3.85-11.83c1.84-5.1,3.34-10.32,4.85-15.53,1-3.51,1.8-7.09,2.71-10.63.36-1.39.49-3,1.24-4.1,2.16-3.31,2.7-7.09,3.7-10.77,1-3.83,2.38-7.57,3.73-11.79-1.85.61-2.27,2-2.78,3.14-1.91,4.4-3.71,8.84-5.59,13.24a40.87,40.87,0,0,0-2.64,8.18,47.83,47.83,0,0,1-2.8,8.15c-4.07,10.25-7.19,20.83-10.79,31.24A361.85,361.85,0,0,0,841.58,690c-.18.77-.39,1.53-.56,2.21-1.57.63-2.71-.22-3.68-.9-5.25-3.71-11.37-4.94-17.42-6.34a82.67,82.67,0,0,0-19-1.81,33.76,33.76,0,0,1,1.52-11.77,15.33,15.33,0,0,0,.44-2.34c.89-5.15,1.88-10.29,2.61-15.46.6-4.24,1.72-8.44,1.25-12.79l0,.05c.9-.45.9-1.3,1-2.12,1.39-4.07,2.75-8.15,4.18-12.21q6.06-17.17,12.17-34.33c.42-1.2.94-2.37,1.39-3.57a6.38,6.38,0,0,0,.3-4.48,1.07,1.07,0,0,0-1.23.79c-7.2,15.51-14,31.17-19.95,47.22q-3.24,8.77-6.48,17.54a23.82,23.82,0,0,1-1.34,3.06c-.9,1.65-2.45,2.21-4,1.22a41.79,41.79,0,0,1-5.36-4A50.63,50.63,0,0,1,773,628.18c-.52-1.49-1.09-2.95-1.68-4.52-1.07,1.08-.31,2-.13,2.91a50.25,50.25,0,0,0,10.69,22.75,36.93,36.93,0,0,0,6.92,6.59c.91.65,1.73,1.43,2.67,2a4.44,4.44,0,0,1,1.92,5,27.47,27.47,0,0,1-3,8,3.53,3.53,0,0,1-3.17,1.82,18.49,18.49,0,0,1-5.66-.84,128.13,128.13,0,0,1-33.2-14.7,107.83,107.83,0,0,1-16.16-12.74c-2.89-2.74-3.65-5.67-2.21-9.49a317,317,0,0,0,12-41.87c2.49-11.06,4.71-22.18,7.22-33.23a285.81,285.81,0,0,1,14.42-46.63c6.17-14.83,13.67-28.88,23.85-41.39a138.79,138.79,0,0,1,13.33-13.78,16.43,16.43,0,0,0,1.52-1.8c0-.05-.05-.26-.13-.34s-.3-.22-.42-.18a5.88,5.88,0,0,0-1.75.63,101.63,101.63,0,0,0-16.68,15.08C769.9,487.09,760.36,504.9,753,524c-6.36,16.44-10.4,33.53-14.26,50.67-4.43,19.63-8.62,39.32-15.35,58.34-4.16,11.77-8.89,23.29-15.75,33.8-11.33,17.34-26.42,29.79-46.54,35.62a74,74,0,0,1-17,2.94,148.84,148.84,0,0,1-35.75-2.64c-2.35-.45-4.7-1-7.06-1.3a11.61,11.61,0,0,1-8.46-5.67c-3.3-5.29-6.83-10.44-9.83-15.89a281.91,281.91,0,0,1-24.59-59.15c.83-.17,1.62-.54,1.64-1.46.07-3,.49-6.07-.35-9.05a12.39,12.39,0,0,1-.23-6.63c1.19-4.35.14-8.94,1.65-13.22,0-6.38,1.46-12.61,2.15-18.92.28-2.5.49-5.07,1-7.55,1.88-9,3.6-18.07,5.85-27,2.33-9.25,5.12-18.38,7.89-27.52,1.38-4.56,3.17-9,4.77-13.51,2.35-6.6,4.36-13.32,6.91-19.86,5.78-14.87,12.11-29.48,19.13-43.8,3.09-6.29,5.8-12.75,9.37-18.82A87.84,87.84,0,0,1,638,390.17a95.16,95.16,0,0,1,27.16-15.8c12-4.53,24.21-7.56,37.11-8.07,5.07-.19,10.05-.68,15.14.06,3.43.5,6.94.39,10.43.86a153.62,153.62,0,0,1,16.84,3.12,140.57,140.57,0,0,1,21.32,7,112.49,112.49,0,0,1,15.4,7.63,60.89,60.89,0,0,0,5.79,3.36,18.3,18.3,0,0,1,6.11,4.51,7.47,7.47,0,0,0,4.34,2.78c-3.45.53-6.88,1.11-10.34,1.59-7.87,1.11-15.76,2.17-23.63,3.28-1.08.15-2.14.49-3.21.75.06,1.24.9.72,1.36.7,8.75-.34,17.5-.72,26.25-1.06,1.26-.05,2.53.07,3.8.11,4.82,1,9.6,2.21,14.46,2.82A158.87,158.87,0,0,1,825,407.36a191.14,191.14,0,0,1,25.44,8.05c4.28,1.73,8.62,3.33,12.81,5.26A185.81,185.81,0,0,1,893.48,438a115.29,115.29,0,0,1,12.95,10.5c5.86,5.6,11.76,11.19,16.91,17.54,3.61,4.45,7.17,8.93,10.42,13.63a216.51,216.51,0,0,1,11.53,18.69c4.16,7.54,8.12,15.16,11.52,23.07C957.73,523.62,958.47,526,960.3,527.64Zm-135-12.9a16.09,16.09,0,0,0,.39,7.18c1.79,6.72,5.64,12.07,10.69,16.71a29.89,29.89,0,0,0,13.3,7.26,39.59,39.59,0,0,0,24.87-2,88,88,0,0,0,9.42-4.7,41.55,41.55,0,0,0,10.26-8.35L887.81,533c-4.52,1.58-9,3.22-13.57,4.7a39.72,39.72,0,0,1-12.18,2.33c-16,.06-27.89-6.8-35-21.4C826.54,517.55,826.06,516.41,825.31,514.74ZM679.65,758.34a4.51,4.51,0,0,0,.19-1.51,10,10,0,0,0-6.27-6.76c-5.87-2.44-11.32-1.5-16.17,2.42-6.18,5-6.48,12.8-.79,18.4a21,21,0,0,0,17,6c.49,0,1-.24.91-.82,0-.24-.36-.51-.62-.64-2.45-1.16-5-2.19-7.36-3.46a16.33,16.33,0,0,1-6.76-6.62c-2-3.58-1.13-7,2.18-9.2,4.58-3.1,10.74-3.1,14.37-.12C677.36,756.84,678.45,757.5,679.65,758.34ZM760,622.81c1.22.06,1.85-.77,2.55-1.34,4.94-4,10.44-6.55,16.91-6.71.45,0,1-.19.85-.81a1.34,1.34,0,0,0-.5-.75c-7-4.63-15.08-1.33-18.71,4.29C760.09,619.06,759.33,620.83,760,622.81Z"/><path class="cls-5" d="M739.58,327.18a3.08,3.08,0,0,0-1.54-2.76c-11.72-9.06-23.85-17.55-36.18-25.76-8.63-5.75-17.43-11.21-26.35-16.48-7.82-4.61-15.87-8.85-23.72-13.43-9.67-5.64-19.82-10.33-29.84-15.27-9-4.44-18.14-8.64-27.33-12.69q-17.28-7.6-34.75-14.76-14.82-6.09-29.81-11.69c-12.23-4.58-24.6-8.74-37.21-12.23-8.89-2.47-17.84-4.72-26.8-6.88-8.48-2-17.08-3.62-25.65-5.3a114.22,114.22,0,0,0-17-2c-4.11-.18-8.19-1-12.27-1.5a10.52,10.52,0,0,0-1.41-.26c-9.26.27-18.48-2-27.68-.88-8.46,1.07-16.9.38-25.32.87-4.27.24-8.51.94-12.75,1.56-2.67.39-5.36.78-8,1.09a325.87,325.87,0,0,0-45.3,9,320.72,320.72,0,0,0-43.35,14.85c-10.28,4.39-20.22,9.51-30.2,14.53-8.28,4.15-16.21,8.89-24.09,13.74-10.87,6.69-21.1,14.27-31.33,21.85-1.44,1.06-2.88,2-4.76,2a82.66,82.66,0,0,1,7.67-12.69c15.47-22,32.5-42.76,52.43-61,27-24.65,57.95-42.3,93.22-52.25a254.44,254.44,0,0,1,49.45-8.72c8.62-.67,17.24-.78,25.86-1,5.36-.15,6.35.69,6.19,5.85-.07,2.23,0,4.47.16,6.71.11,1.84.71,3.44,2.63,4.2a6.13,6.13,0,0,0,6.33-.81,2.93,2.93,0,0,0,1.13-2c.07-.79.08-1.59.08-2.39,0-1.92-.06-3.84,0-5.75.15-4.24,1.51-5.54,5.63-5.11,8.42.87,16.86,1.62,25.24,2.81a463.36,463.36,0,0,1,55.8,11.53,613.51,613.51,0,0,1,69.39,23.5,871.77,871.77,0,0,1,107.53,52.65c23,13.19,45.61,27.1,67.54,42.06a838.13,838.13,0,0,1,79.73,61.38c12.52,11,24.86,22.08,36.47,34,13.3,13.64,25.5,28.22,37.46,43a4.37,4.37,0,0,1,1.26,2.52L887,404.39c-5.54-1.51-11.06-3.1-16.62-4.54a149.16,149.16,0,0,0-30.74-4.62c-5.58-.25-11.16-.63-16.75-.67a7.53,7.53,0,0,1-6.71-3.71,159.39,159.39,0,0,0-23.56-27.06,216.39,216.39,0,0,0-34.92-26c-5.61-3.38-11.33-6.56-17-9.83l-1.06-.79Z"/><path class="cls-4" d="M558.25,642.71a3.69,3.69,0,0,1,.55.78c2.16,5.5,5.11,10.63,7.58,16,6.19,13.44,14.35,25.61,23.12,37.43a16.74,16.74,0,0,0,8.83,6.24c12.11,3.66,24.36,6.48,37.08,6.87,8.49.26,16.93.18,25.17-2.09,4.15-1.14,8.17-2.72,12.26-4.08,1.61-.53,3.15-1.38,5.22-1.36a17.72,17.72,0,0,1-.72,2c-3.32,6.56-6.72,13.08-9.94,19.68a6.42,6.42,0,0,1-5.44,4,39.44,39.44,0,0,0-9.71,2.51c-7.36,2.81-11.57,8.25-13.19,15.81a43.87,43.87,0,0,0-1,7.1c-.12,2.76-1.39,4.34-3.84,5.47a74.37,74.37,0,0,0-13.59,8c-9.4,7-14.92,16.45-17.17,27.87a64,64,0,0,0-.24,20.48c1.75,13.86,6.59,26.59,13.34,38.68,1.33,2.37,2.62,4.77,4.05,7.07a13.79,13.79,0,0,1,2.09,9.61c-.32,2.21-.72,4.41-1.09,6.61-2.12,12.75-4.57,25.45-6.25,38.25-.9,6.83-2.29,13.49-3.83,20.16a12.36,12.36,0,0,0-.24,3.33,46.06,46.06,0,0,1-2.54,16.49,74.69,74.69,0,0,0-3.16,14.43c-.76,5.88-2.54,11.53-4,17.25-.42,1.68-1,2-2.71,2-1.28,0-2.56-.1-3.83-.14a38.35,38.35,0,0,0-20.72,4.84c-3.13,1.78-3.4,2.59-6.09-1.38a35.74,35.74,0,0,0-9.06-9.77,29.12,29.12,0,0,0-15.62-5.39A48.51,48.51,0,0,0,529.31,979a14.78,14.78,0,0,1-1.86.44,1.31,1.31,0,0,1-1.62-1.28c-.19-1.58-.26-3.18-.56-4.74-1.54-8-6.14-13.91-12.93-18.19a42.43,42.43,0,0,0-6.77-3.57c-2.54-1-2.71-2.12-1-4.35,1.87-2.39,3.82-4.72,5.63-7.15,8.65-11.62,14.95-24.49,20.22-37.93a139.24,139.24,0,0,0,8.79-34.7c.58-4.91,1.26-9.81,1.9-14.72a97.84,97.84,0,0,0,8.56-23.14,86.25,86.25,0,0,0,2.92-24c-.12-3-.82-6-.89-9-.15-5.77-1.41-11.35-2.41-17-1.66-9.36-4.08-18.58-6-27.91a58.59,58.59,0,0,1-1.4-12.28c.13-11.17.12-22.34,0-33.51,0-4.32,1.42-8.49,1.07-12.81a2.86,2.86,0,0,1,.22-.93c.51-1.68,1.27-2.27,3.08-2.47,1.17-.13,2.44.25,3.79-.54a12.67,12.67,0,0,0-1.31-1.67c-3.34-2.89-3.75-6.74-2.67-10.53,1.75-6.11,2.84-12.38,4.55-18.49.94-3.37,1.81-6.77,3-10C554.55,646.1,555.57,643.7,558.25,642.71Z"/><path class="cls-5" d="M797.68,395.6a7.47,7.47,0,0,1-4.34-2.78,18.3,18.3,0,0,0-6.11-4.51,60.89,60.89,0,0,1-5.79-3.36,112.49,112.49,0,0,0-15.4-7.63,140.57,140.57,0,0,0-21.32-7,153.62,153.62,0,0,0-16.84-3.12c-3.49-.47-7-.36-10.43-.86-5.09-.74-10.07-.25-15.14-.06-12.9.51-25.13,3.54-37.11,8.07A95.16,95.16,0,0,0,638,390.17a87.84,87.84,0,0,0-19.79,23.18c-3.57,6.07-6.28,12.53-9.37,18.82-7,14.32-13.35,28.93-19.13,43.8-2.55,6.54-4.56,13.26-6.91,19.86-1.6,4.5-3.39,8.95-4.77,13.51-2.77,9.14-5.56,18.27-7.89,27.52-2.25,8.93-4,18-5.85,27-.52,2.48-.73,5-1,7.55-.69,6.31-2.12,12.54-2.15,18.92-1.51,4.28-.46,8.87-1.65,13.22a12.39,12.39,0,0,0,.23,6.63c.84,3,.42,6,.35,9.05,0,.92-.81,1.29-1.64,1.46A235.62,235.62,0,0,1,551,591a344.27,344.27,0,0,1-5.08-38,413.75,413.75,0,0,1-1-45.51c.33-11.65,1.27-23.27,2.53-34.87,3-27.37,8.44-54.24,15.36-80.86a42.09,42.09,0,0,1,13.82-21.89,154.87,154.87,0,0,1,13.62-10.57c6.73-4.6,13.2-9.58,20.1-13.91a151.18,151.18,0,0,1,49.79-20.52,116.56,116.56,0,0,1,33.82-2c21.43,1.85,41.09,8.9,59.65,19.4a251.79,251.79,0,0,1,36.84,25A159.68,159.68,0,0,1,814,391.09a13.15,13.15,0,0,1,1.31,2,.8.8,0,0,1-.46,1.14,7.34,7.34,0,0,1-1.87.33Z"/><path class="cls-5" d="M105.46,420.78q0,23,.08,46c0,2.39-.22,4.8.73,7.1a3,3,0,0,1,.15,1.42c-.47,5.14,1.08,10.13,1.06,15.23,0,2.23.7,4.39,1.06,6.58,2.12,13,4.88,25.93,9.4,38.38q3.82,10.56,8.54,20.77c3.46,7.54,7.42,14.86,10.68,22.47,3.85,9,8.85,17.33,13.29,26q4.92,9.59,9.89,19.14c4.9,9.49,9.73,19,14.76,28.47,4.81,9,9.84,17.87,14.76,26.81.62,1.12,1.17,2.27,1.74,3.42,3.62,7.28,7.64,14.35,11.61,21.45,2.57,4.58,4.93,9.29,7.45,13.92,8,14.72,15.45,29.74,22.92,44.75,2.63,5.28,5.32,10.53,8.19,15.7s5,10.65,7.52,16c.67,1.44,1.19,3,1.9,4.38,5.52,11,10.14,22.34,14.64,33.76,2.17,5.48,4.7,10.82,6.92,16.28,3.66,9,7.25,18,10.2,27.3,2.32,7.29,4.83,14.52,7.19,21.8,2,6.05,3.94,12.11,5.73,18.23a77.55,77.55,0,0,1,1.5,7.93c-1.23.73-2.42,1.55-3.71,2.15-2.1,1-3.12.47-3.92-1.86-.32-.91-.58-1.83-.82-2.76-7.11-28-18.26-54.46-31.43-80.1-11.32-22-23.55-43.56-36-65-22.58-38.8-46.24-76.95-69.25-115.49-9.74-16.32-19.76-32.48-28.56-49.35-11.59-22.2-20.59-45.35-25.56-70a173,173,0,0,1-3.34-31.88,280.21,280.21,0,0,1,1.3-33c1.45-13.65,3.52-27.22,6-40.74.77-4.24,1.56-8.47,2.34-12.71A4,4,0,0,1,105.46,420.78Z"/><path class="cls-4" d="M699.34,785.56a15.92,15.92,0,0,0-1.2-6.78,6.48,6.48,0,0,1-.07-4.65c2.84-8.11,1-15.77-2.54-23.17a45.88,45.88,0,0,0-11.86-14.91,36.12,36.12,0,0,0-6.87-4.33,36.09,36.09,0,0,1-4.07-2.5,2.81,2.81,0,0,1-1-3.42,56,56,0,0,1,2.2-5.31c2-4,4-8,6-12a53.6,53.6,0,0,1,16.84-19.94,59.87,59.87,0,0,0,15.81-17.8q3.38-5.52,6.77-11a56.26,56.26,0,0,0,5-9.82,22.29,22.29,0,0,1,.93-2.2,1.4,1.4,0,0,1,2.37-.35c1,1,2,2.08,3,3.13,4,4.33,8.15,8.59,13.07,11.95,1.45,1,3,1.85,4.42,2.86,2.36,1.65,2.75,3,1.53,5.75-.84,1.9-1.82,3.73-2.77,5.58a263.62,263.62,0,0,0-13.61,30.65c-3.56,9.78-5.74,19.93-7.84,30.1-3.23,15.63-6.28,31.3-9.59,46.91-2.73,12.82-6.64,25.33-10.43,37.86-2,6.57-3.9,13.17-5.85,19.75-.18.61-.28,1.25-.51,1.84a2.27,2.27,0,0,1-2.63,1.58,14.67,14.67,0,0,1-2.75-.8c-8.44-3.24-16.21-7.68-22.65-14.06a47.27,47.27,0,0,1-13.64-27.91,5.34,5.34,0,0,1,.08-1.43,1.05,1.05,0,0,1,1.43-.79c1.1.63,2.18,1.31,3.26,2a29.5,29.5,0,0,0,17.31,4.58C690.23,806.45,699.8,796.89,699.34,785.56Z"/><path class="cls-3" d="M297.38,43.17a14.52,14.52,0,0,1-.49,2.8,8.42,8.42,0,0,0-.32,5.18,31.92,31.92,0,0,1,.91,7.57,1.66,1.66,0,0,0,.64,1.14c.65.46,1.19-.08,1.67-.47a8.31,8.31,0,0,0,2.31-3.59c1.37-3.4,4.07-5.67,6.66-8a1.74,1.74,0,0,1,.83-.45,2.26,2.26,0,0,1,1.35.1c.33.21.73.88.61,1.13-1.47,3.34-.13,7-1.3,10.37a1.77,1.77,0,0,0,1.29,2.25,1.59,1.59,0,0,0,2.07-.68c1.15-1.91,2.31-3.82,3.4-5.76.7-1.26,1.26-2.63,2.62-3.32a1.93,1.93,0,0,1,1.34-.06,1.34,1.34,0,0,1,1,1.46c-.35,1.54-1,3-1.35,4.57-.43,1.76-.41,3.47,1.09,4.86,1,.92,2.07,1.07,2.92.13.64-.69,1.1-1.55,1.72-2.27A13.46,13.46,0,0,1,329,57.34c1.29-.83,2.61-2.76,4-2.06,1.78.89.33,2.76.06,4.23a8.63,8.63,0,0,0,4.33,9.35,36.07,36.07,0,0,0,5.57,2.76,120.36,120.36,0,0,0,22.07,6c1.69.3,3.45.21,5.19.53-4.74.86-9.44,1.86-15.06,1.46,3.11,2.11,6,2.22,8.69,2.91,1.69.44,3.42.73,5.12,1.14.45.1,1,.42.69,1a1.58,1.58,0,0,1-1.1.67c-1.26.08-2.52,0-4.12,0,2,1.6,2,1.54,6,2.09,2.18.29,4.25,1.31,6.86.69a2.85,2.85,0,0,1-2.84,2c-2.37,0-4.79.43-7.11-.44a9.46,9.46,0,0,0-4.26-.31.78.78,0,0,0-.53.57,1.2,1.2,0,0,0,.45.76,1.8,1.8,0,0,0,.86.37c4.26.54,8.38,1.92,12.6,2.52,4.69.67,9.39,1.78,14.2,1.36,1.16,1.13,3.09.14,4.22,1.48-1.18,1-2.71.15-3.89.87-4.29-.71-8.61-.21-12.91-.37-3-.11-6.05.21-9-.77a14.1,14.1,0,0,0-3.81-.19c-2.06-.06-4.13.1-6.15-.66a7.88,7.88,0,0,0-2.84-.27,23.25,23.25,0,0,1-7.56-.87,7,7,0,0,0-2,.19c4.41,2.1,8.68,2.45,12.73,3.36S367.76,99.45,372,100s8.33,1.59,12.88,1.87c-1.09,1.09-2.07.74-2.93.75-9,0-17.91.14-26.85-.07a90.69,90.69,0,0,1-11.8-1.43,11,11,0,0,0-5.32.06c13.86,3.57,27.52,5.23,40.81,8.67-3.9.39-7.79.93-11.63-.12a25,25,0,0,0-5.71-.38c-3.65-.15-7.36.4-10.93-.86a2.52,2.52,0,0,0-.95-.07c-5.93.53-11.73-1-17.63-1a60.35,60.35,0,0,1-8-1.08A332.21,332.21,0,0,1,288,99.11c-9.32-2.44-18.33-5.5-26.69-10.23-6.27-3.55-12.08-7.76-16.07-14a26.3,26.3,0,0,1-3.1-7,11.53,11.53,0,0,1,0-6.14c1.4-5.33,4.24-9.92,7.43-14.32a8.86,8.86,0,0,1,2.38-2.35,19,19,0,0,0,7.56-8.41,1,1,0,0,1,.79-.37.81.81,0,0,1,.57.55c.11,1.58.29,3.16-.7,4.62-3.09,4.55-2.24,9.4-.91,14.25A4.37,4.37,0,0,0,261,58a1.8,1.8,0,0,0,2.57-.18c1.72-2.29,3.38-4.63,5-7,.45-.65.6-1.57,1.15-2.08a9.12,9.12,0,0,0,2.71-8.39c1.71,0,3.24,0,4.76,0,1.31.06,1.77.56,1.4,1.82a16.81,16.81,0,0,0-.38,5.23,4.1,4.1,0,0,0,.5,2.29c2.41,3.17,2.38,6.83,2.33,10.52,0,.64,0,1.28,0,1.92-.06,1.56-.72,2-2.12,1.49-1.88-.73-3.66-1.77-5.82-1.86.11.45.08.82.25,1a13.77,13.77,0,0,0,15.14,1.92c.2-.12.27-.53.35-.82,0-.06-.17-.22-.29-.28-1-.51-2.36.13-3.12-.88-.93-1.24-.44-2.78-.54-4.19-.07-1,0-1.92,0-2.87a3,3,0,0,1,.87-2.17c1.91-1.77,3.05-4,4.42-6.19a8,8,0,0,1,7.16-4.09Z"/><path class="cls-4" d="M629.9,875.42c2.42,2.65,5,5.28,7.34,8a155.44,155.44,0,0,0,37.34,31.17c1.36.83,2.74,1.65,4.08,2.51A5,5,0,0,1,681.2,922c-.1,1.43,0,2.89-.27,4.3-1.41,8.48-.35,16.88.77,25.26.59,4.42,1.55,8.79,2.26,13.19.76,4.73.07,5.65-4.64,6.28a37.47,37.47,0,0,0-22.68,11.32c-1.21,1.25-2.14,3.26-3.88,3.38-1.9.14-2.65-2.07-3.8-3.33a19.46,19.46,0,0,0-15.31-6.64c-1.91,0-3.83.16-5.74.24a5.48,5.48,0,0,1-4.35-1.61c-2.64-2.69-5.95-4.22-9.43-5.49-2.11-.78-2.36-1.29-2.29-3.6a8.1,8.1,0,0,1,.22-2.38c1.86-5.14,2-10.64,3.4-15.89.56-2.16,1.06-4.33,1.55-6.51a16.26,16.26,0,0,0,.63-3.74,28.92,28.92,0,0,1,1.34-9c2.09-6.91,3-14,4.38-21.06,1.82-9.55,3.4-19.15,5.11-28.73A2.91,2.91,0,0,1,629.9,875.42Z"/><path class="cls-5" d="M558.25,642.71c-2.68,1-3.7,3.39-4.55,5.75-1.17,3.28-2,6.68-3,10-1.71,6.11-2.8,12.38-4.55,18.49-1.08,3.79-.67,7.64,2.67,10.53a12.67,12.67,0,0,1,1.31,1.67c-1.35.79-2.62.41-3.79.54-1.81.2-2.57.79-3.08,2.47a2.86,2.86,0,0,0-.22.93c.35,4.32-1.11,8.49-1.07,12.81.09,11.17.1,22.34,0,33.51a58.59,58.59,0,0,0,1.4,12.28c1.88,9.33,4.3,18.55,6,27.91,1,5.6,2.26,11.18,2.41,17,.07,3,.77,5.95.89,9a86.25,86.25,0,0,1-2.92,24,97.84,97.84,0,0,1-8.56,23.14c0-5.58-.1-11.17-.11-16.75a215.24,215.24,0,0,0-6.32-50.22c-3.75-15.5-7.65-31-11.3-46.49a222.82,222.82,0,0,1-5.73-37.79,135.67,135.67,0,0,1,6.6-49.5c3.33-10.51,7.58-20.66,11.71-30.86,2.16-5.33,4.39-10.62,6.6-15.92.43-1,.92-2,1.44-3a1,1,0,0,1,.71-.5c.58-.07.83.4,1,.85.54,2,1,4,1.57,6,2.75,9.84,6,19.52,9.48,29.11C557.34,639.34,558.19,640.91,558.25,642.71Z"/><path class="cls-5" d="M632,866.2c1.28.06,2.78-.07,3.45,1.21,1.88,3.57,5.34,5.49,8.31,7.78a171.36,171.36,0,0,0,36.88,21.94A128.49,128.49,0,0,0,714,906.76c3,.42,6.07.3,9,.92,5.55,1.17,11.11.68,16.67.79,3,.06,6.07.3,9-.78a3.93,3.93,0,0,1,1.42-.12c6.6.17,13-1.39,19.22-3.12,5.06-1.41,10.13-2.71,15.22-4A86.45,86.45,0,0,0,794,897.3a164.59,164.59,0,0,0,20.24-9.66,203.37,203.37,0,0,0,24.14-16.25c3-2.28,5.85-4.93,8.78-7.35,4.69-3.87,8.85-8.26,13.2-12.47,6.2-6,11.39-12.86,16.42-19.82,1-1.4,2.58-2.44,3-4.26,3.22,1.33,5.33,4,7.56,6.45a3.93,3.93,0,0,1,.6,4.49,25.38,25.38,0,0,1-2.38,4.14c-3.43,4.81-6.92,9.57-10.41,14.35a12.09,12.09,0,0,1-1.23,1.45,2.6,2.6,0,0,1-3.84.37,3.3,3.3,0,0,0-.39-.26c-1.15-.61-1.53-2.47-3.32-2.05-.5,1.58.67,2.72,1.15,4,.88,2.32.79,4.39-.83,6.28q-4.83,5.63-9.75,11.17a7.54,7.54,0,0,1-1.92,1.42,3.73,3.73,0,0,1-4.8-.63c-.69-.66-1.25-1.45-1.92-2.14a27.77,27.77,0,0,0-2.41-2.32,1.47,1.47,0,0,0-1.26-.26c-.51.24-.35.82-.09,1.24.69,1.08,1.43,2.12,2.11,3.2a17.45,17.45,0,0,1,1.37,2.51,4.64,4.64,0,0,1-.89,5.33,37.91,37.91,0,0,1-3.13,2.95,188.37,188.37,0,0,1-38.36,25.14A136.44,136.44,0,0,1,767,926.57a126.68,126.68,0,0,1-67.63-8,156.68,156.68,0,0,1-56.89-38.83c-2.5-2.69-4.85-5.51-7.2-8.34A16.09,16.09,0,0,1,632,866.2Z"/><path class="cls-5" d="M375.22,920.07c-1.39-.81-1.63-2.27-2.09-3.62-2.52-7.56-5-15.14-7.62-22.65q-4.38-12.37-9.1-24.63c-4.76-12.32-9.81-24.53-14.5-36.88a169,169,0,0,1-7.77-27.52c-1.31-6.67-2.65-13.37-3.34-20.18-.6-5.83-1.83-11.6-1.79-17.5-1.44-4-.62-8.2-1.63-12.26-.84-3.36-.8-6.93-1.24-10.39-.49-3.77-1.1-7.52-1.65-11.28a17.52,17.52,0,0,1-.21-1.9c-.08-2.86-.44-5.69-.75-8.53-.51-4.56-.57-9.18-1.12-13.77-.4-3.45.09-7-.92-10.43-.38-1.33-.08-2.86-.12-4.3a41.79,41.79,0,0,0-.7-8.54c-.47-2-.93-4.42.6-6.44.06.61.11,1.22.17,1.83-.05,1.3-.48,2.67.66,3.76,1.31,9.15,2.13,18.36,3.8,27.47a298.11,298.11,0,0,0,14.82,52.4c6.47,17,13.36,33.81,20,50.72,9.39,23.9,19,47.69,27.18,72.06,2.17,6.5,4.15,13.06,6.21,19.6a28,28,0,0,1,.83,3.24,1.86,1.86,0,0,1-1.42,2.18,9,9,0,0,1-2.33.49c-4.45.31-8.29,2.14-11.95,4.51C377.92,918.38,376.57,919.22,375.22,920.07Z"/><path class="cls-5" d="M960.3,527.64c-1.83-1.68-2.57-4-3.49-6.18-3.4-7.91-7.36-15.53-11.52-23.07a216.51,216.51,0,0,0-11.53-18.69c-3.25-4.7-6.81-9.18-10.42-13.63-5.15-6.35-11.05-11.94-16.91-17.54A115.29,115.29,0,0,0,893.48,438a185.81,185.81,0,0,0-30.19-17.36c-4.19-1.93-8.53-3.53-12.81-5.26A191.14,191.14,0,0,0,825,407.36a158.87,158.87,0,0,0-18.67-3.57c-4.86-.61-9.64-1.86-14.46-2.82,1.38-1.1,3-.8,4.61-.81,9.26,0,18.54-.37,27.79,0,23,1,45.34,5,66.6,14.14,14.32,6.19,27.68,14,39.24,24.49,15.61,14.23,26.47,31.45,31.61,52.05a66.64,66.64,0,0,1-.56,34.56A19.91,19.91,0,0,1,960.3,527.64Z"/><path class="cls-5" d="M620.39,981.22c1,.29,1.89-.19,2.81-.39a28,28,0,0,1,15.57.61c7.34,2.59,11.46,7.8,12.58,15.44.14.94.26,1.89.43,2.82a1.17,1.17,0,0,0,.77-.05c1.07-.94,1-2.34,1.16-3.55.48-4.21,2.71-7.46,5.53-10.36a19.8,19.8,0,0,1,8-5.08,13.62,13.62,0,0,0,3.82-1.89c3.47-2.52,7.55-3.35,11.66-4,2.19-.34,3.33.42,3.94,2.58,1.72,6.14,3.35,12.31,5,18.47a4.51,4.51,0,0,1-1.59,5.14c-2,1.57-3.86,3.36-6,4.81-8,5.57-16.57,10.17-26.2,12.47a41.88,41.88,0,0,1-7.12.89c-14,.86-27.34-1.6-39.6-8.75-2.06-1.21-4.07-2.53-6-3.93-3.35-2.45-3.7-3.43-2.65-7.3.8-2.93,1.76-5.81,2.57-8.73,1.11-4,2.13-8,3.22-12a26.7,26.7,0,0,1,1.19-3.64,1.77,1.77,0,0,1,2.35-1.11c2.32,1,4.59,2.2,6.83,3.39a2.53,2.53,0,0,1,1.15,2C620,979.79,619.59,980.66,620.39,981.22Z"/><path class="cls-5" d="M415.73,912.58a3,3,0,0,1-1.29-1.9c-3.45-13.87-7.13-27.68-10.32-41.61-1.45-6.34-3.16-12.62-4.5-19-1.8-8.53-3.62-17.06-5.33-25.6-1.31-6.53-2.54-13.07-3.65-19.63-1.14-6.71-2-13.47-3.15-20.19-.62-3.75-1.53-7.46-2.22-11.2q-1.31-7-2.47-14c-.92-5.62-1.56-11.29-2.68-16.89-1.19-5.9-2.17-11.85-2.95-17.81a78.58,78.58,0,0,1-.18-9.09c2.1,1.71,4.24,3.36,6.27,5.13a130.19,130.19,0,0,0,11.18,9c2.64,1.82,3.5,4.08,3.27,7.36a159.36,159.36,0,0,0,.12,23.43c.44,5.72.54,11.46,1.1,17.18q1.56,16,4.46,31.72A474,474,0,0,0,419,869.57c4.25,13.06,7.13,26.47,9.66,39.95a28.47,28.47,0,0,1,.23,3c-1.55.61-2.87-.23-4.19-.39a16.13,16.13,0,0,0-4.75-.31C418.56,912.06,417.15,912.33,415.73,912.58Z"/><path class="cls-4" d="M394.4,24.27l3.78-.35a25.37,25.37,0,0,1,15.1,10.75c2,2.86,4,5.69,5.93,8.54,1.65,4.61,3.23,9.25,5,13.83,2.05,5.37,2.15,5.42-2.69,8.22a52,52,0,0,1-21,7,18.86,18.86,0,0,1-5.5.68c-1.69,0-3.39.1-5.09.17a51.2,51.2,0,0,1-14.5-2.14c-.75-.25-1.46-.63-2.18-.94a18.56,18.56,0,0,1,.07-3.34c.89-4.51,1.69-9.06,2.89-13.49,2.94-10.84,7.95-20.45,17.2-27.36A5.46,5.46,0,0,0,394.4,24.27Z"/><path class="cls-3" d="M836.65,774.14a60.93,60.93,0,0,1-16.5-12.44c-8.08-8.51-13.25-18.68-16.72-29.79a84.56,84.56,0,0,1-2.56-39.28,16.52,16.52,0,0,1,.44-2.35,2.89,2.89,0,0,1,3.26-2.21c2.22.24,4.42.64,6.63.94,4.59.61,9.18,1.19,13.76,1.8a15,15,0,0,1,2.33.47,2.22,2.22,0,0,1,1.79,2.48,30.42,30.42,0,0,1-.73,4.23,111.39,111.39,0,0,0-3.2,30.37c.61,13.67,3.18,26.91,8.79,39.48C834.71,769.56,835.44,771.31,836.65,774.14Z"/><path class="cls-5" d="M36.83,519.75a26.42,26.42,0,0,1-5.21,7.34,50.78,50.78,0,0,0-6,8.56c-1.84,3.05-1.33,6.51-2.44,9.63.95,3.5.87,7.23,2.43,10.62,1.67,3.61,2.84,7.45,4.65,11,3.58,7,5.94,14.38,8.15,21.85a13.2,13.2,0,0,0,1.06,3.16c1.92,3.19,1.88,6.68,1.8,10.19s.41,7.34-1.07,10.85a7.27,7.27,0,0,1-1.63,2.87c-1-7.3-4.06-13.75-8.22-19.69-4.76-6.8-9.73-13.45-14.52-20.22q-3.18-4.5-6-9.26a38.13,38.13,0,0,1-4.47-11.54,21.23,21.23,0,0,1,3-16,16.84,16.84,0,0,1,1.35-2A56.64,56.64,0,0,1,32.65,520.3,6.09,6.09,0,0,1,36.83,519.75Z"/><path class="cls-4" d="M990.08,533.45a7,7,0,0,1-.11,1.9c-2.83,7.94-4.77,16.24-9.3,23.5q-3.43,5.49-6.88,10.95a1.45,1.45,0,0,1-1.6.78,1.64,1.64,0,0,1-1.11-1.41,8.58,8.58,0,0,1-.16-1.43c-.17-9.17-2.26-18-4.59-26.83-.78-2.93-1.53-5.88-2.48-8.75a8,8,0,0,1-.05-5.59c2.5-6.81,3.35-14,3.73-21.14.3-5.59-.51-11.15-1.07-16.7-.18-1.75-.37-3.49-.55-5.24a5.59,5.59,0,0,1,2.58,2.06c2.42,3.14,4.9,6.24,7.1,9.52,6.1,9.11,9.33,19.34,11.66,30C987.87,527.89,988,531,990.08,533.45Z"/><path class="cls-5" d="M946.58,649c2.94-5.23,4-11,5-16.83.92-5.32,1.83-10.63,2.62-16,.53-3.61.84-7.25,1.22-10.89a11.93,11.93,0,0,1,.24-2.84c.88-2.33.64-4.73.73-7.11a72.47,72.47,0,0,1,.68-10.47c.63-3.4.18-7,.18-10.52a3.44,3.44,0,0,0-.2-.93c-.43-1.39-2.22-2-2.22-3.56s1.67-2.3,1.57-3.9-.08-3.19-.12-4.78c.95-.52,1.94-1,2.85-1.57a1.84,1.84,0,0,0,.76-1.06c.11-.5-.37-.8-.82-.95-1.17-.39-2.36-.75-3.54-1.13-.05-1.25-.1-2.5-.13-3.75-.08-3.3-.07-6.58,1.75-9.54a3.77,3.77,0,0,0,.23-1.38c1.14-.51,1.49-1.58,1.9-2.62.71-1.76,1.44-3.52,2.14-5.23,1.43.12,1.55,1.13,1.76,2a158.28,158.28,0,0,1,3.56,19.28,150.69,150.69,0,0,1,1.12,19.59,185.85,185.85,0,0,1-6.21,43c-2.73,10.35-6.48,20.36-10.22,30.38-.06.14-.11.3-.17.44C949.87,652,949.06,652.06,946.58,649Z"/><path class="cls-5" d="M692.66,768.42c-1.33-2.34-2.61-4.71-4-7a38.32,38.32,0,0,0-14.22-13.91c-6.35-3.51-13.23-4.57-20.19-1.16a21.73,21.73,0,0,0-9.22,8.77c-1.29,2.17-1.77,4.76-3.48,6.71a1.34,1.34,0,0,1-.76-.16l.06.07a28.48,28.48,0,0,1,1.08-13.65c4.3-12.69,17-17.91,28.38-13.4a41.29,41.29,0,0,1,17.22,13.21,36.32,36.32,0,0,1,7.58,16.78,27.09,27.09,0,0,1,.31,2.84c.1,1.76-.29,1.93-2.32,1.1Z"/><path class="cls-5" d="M990.08,533.45c-2.08-2.42-2.21-5.56-2.83-8.42-2.33-10.62-5.56-20.85-11.66-30-2.2-3.28-4.68-6.38-7.1-9.52a5.59,5.59,0,0,0-2.58-2.06c-3.1-6.86-4.22-10.39-4.25-13.42a4.69,4.69,0,0,1,1.35.31c12.23,7.41,21.54,17.31,26.09,31.13a53.48,53.48,0,0,1,2.2,25.42C991,529.11,991.18,531.41,990.08,533.45Z"/><path class="cls-5" d="M113.32,338.67a9.43,9.43,0,0,1-1.47,4.92A73.48,73.48,0,0,0,105.61,357,193.51,193.51,0,0,0,97,388.76c-1,5.46-2.22,10.9-2.84,16.41-1.12,10-3.21,19.74-5.1,29.55-1.35,7-3.31,13.91-5.13,20.83A222.08,222.08,0,0,1,75.84,480a4.17,4.17,0,0,1-2,2.55c.31-3.37,1.63-6.48,2.56-9.69,2.93-10.12,5.94-20.21,8.41-30.46a303.86,303.86,0,0,0,5.43-31.59c1.5-11.55,2.51-23.17,4.65-34.64,2.45-13.11,8.1-24.83,15.88-35.57C111.43,339.75,112,338.67,113.32,338.67Z"/><path class="cls-5" d="M882.42,824.34a21.39,21.39,0,0,0,4.33-5.47c1.78-3,4-5.62,6.07-8.43,3.06-4.23,5.88-8.58,7.07-13.77a16.08,16.08,0,0,1,5.11,4.27,4.48,4.48,0,0,1,.86,5.31c-.77,1.59-1.42,3.22-2.23,4.78q-4.92,9.33-9.92,18.61a15.86,15.86,0,0,1-1,1.65c-.8,1.16-1.83,1.34-2.83.45-.83-.75-1.56-1.59-2.36-2.38C885.85,827.68,884.13,826,882.42,824.34Z"/><path class="cls-5" d="M806.78,640.8c.47,4.35-.65,8.55-1.25,12.79-.73,5.17-1.72,10.31-2.61,15.46a15.33,15.33,0,0,1-.44,2.34A33.76,33.76,0,0,0,801,683.16c-3.84,1.34-7.75,1-11.66.77-.23-1.79.67-3,1.2-4.31q7.62-18.61,15.33-37.19A14.1,14.1,0,0,1,806.78,640.8Z"/><path class="cls-5" d="M902.66,794.46c1.2-.91,1.63-2.32,2.24-3.59a115.74,115.74,0,0,1,6.59-11.57,16.62,16.62,0,0,0,2.82-9.43c.69.39,1.4.76,2.07,1.19a4,4,0,0,1,1.82,4.54,14.46,14.46,0,0,1-.47,1.86c-2.59,7.2-5.19,14.41-8.48,21.33a18.45,18.45,0,0,1-1.18,1.82A54.78,54.78,0,0,1,902.66,794.46Z"/><path class="cls-2" d="M108.26,385.36c0,4.65-1.18,9.15-2.13,13.64-2,9.5-4.28,18.94-6.4,28.41a10.63,10.63,0,0,1-1.51,3.74c.66-10.62,1.59-21.23,4.43-31.58a81,81,0,0,1,5.13-14.36l.21.19Z"/><path class="cls-5" d="M320.56,660a6.13,6.13,0,0,0-3.05,2.91,10.7,10.7,0,0,1-2.88,3.15,1.34,1.34,0,0,1-1.75.07c-.51-.4-1-.91-.77-1.61.48-1.51,1-3,1.59-4.48,1.18-3.12,2.68-6.11,3.31-9.42.41-2.18,1-4.33,1.36-6.51a2.08,2.08,0,0,0-1.1-2.42c.28-.38.55-.77.85-1.14.58-.76,1.19-1.65,2.29-1.38s1.09,1.41,1.09,2.34c0,4.6,0,9.21-.18,13.8A36.06,36.06,0,0,1,320.56,660Z"/><path class="cls-2" d="M932.89,740.16c3.41,3.17,6.26,6.65,10.12,8.8-.41,1.46-1.35.94-2,1a27.75,27.75,0,0,1-7.6-.67,2.54,2.54,0,0,1-2.32-2.62C931.23,744.48,931.32,742.25,932.89,740.16Z"/><path class="cls-5" d="M916.61,764.66a3.23,3.23,0,0,0,3.41-2.09c.54-1.32,1-2.66,1.56-4a2.31,2.31,0,0,1,2.14-1.62c-.18,3.5-1.53,6.73-2.29,10.09a1.6,1.6,0,0,1-2.68.68A8.68,8.68,0,0,1,916.61,764.66Z"/><path class="cls-5" d="M944,664.17a13.48,13.48,0,0,1,.27-3.62,15.64,15.64,0,0,0,.55-6.33c3,1.11,3.52,1.86,2.44,4.29C946.42,660.5,945.87,662.72,944,664.17Z"/><path class="cls-4" d="M108.26,385.36l-.27,0-.21-.19a6.9,6.9,0,0,1,.5-1.14c.08-.12.4-.09.61-.13a2,2,0,0,1,.06.42A1,1,0,0,1,108.26,385.36Z"/><path class="cls-4" d="M322.1,684.84c-1.14-1.09-.71-2.46-.66-3.76C322.41,682.2,322.26,683.52,322.1,684.84Z"/><path class="cls-5" d="M807.71,638.73c-.06.82-.06,1.67-1,2.12A2.66,2.66,0,0,1,807.71,638.73Z"/><path class="cls-5" d="M888.12,403.24c.63.23,1.2.69.88,1.33s-1.08.28-1.66.08a1.89,1.89,0,0,1-.39-.26Z"/><path class="cls-6" d="M559,387.24c.26-.31.57-.77,1-.38s.06.78-.24,1.11Z"/><path class="cls-6" d="M739.58,327.16l1.06.79A1,1,0,0,1,739.58,327.16Z"/><path class="cls-3" d="M419.21,43.21c-2-2.85-4-5.68-5.93-8.54a25.37,25.37,0,0,0-15.1-10.75,2.13,2.13,0,0,1,1.64-.84c3.18.05,6.4-.52,9.49.64,6.19,0,12.28,1.85,18.55.87-10.57-3.27-21.45-5-32.36-6.6-.29-.87.43-.6.71-.69a3,3,0,0,1,1-.05c7.67,0,15.34,0,23,.06a14.5,14.5,0,0,1,3.78.46,16.2,16.2,0,0,0,4.26.44c3,.06,6.06-.2,9,.87.34.12.82-.15,1.39-.27-2.14-1.61-4.62-1.73-6.88-2.26a132.83,132.83,0,0,0-15.91-2.93c-3.63-.38-7.18-1.54-10.89-1.21a3.49,3.49,0,0,1-.92-.21c-.38-.1-.58-.35-.47-.72s.25-.66.46-.72A29.1,29.1,0,0,1,417.2,10c3.75.64,7.53,1.14,11.32,1.43a64.27,64.27,0,0,0,9.1,0c3.09-.2,5.94,1,9,1.13,3.3.15,6.54,1.21,9.85,1.55,4.59.46,9.09,1.41,13.64,2.07a115.33,115.33,0,0,1,15.82,3.41c7.32,2.14,14.71,4.13,21.78,7.12A88.81,88.81,0,0,1,526,37.08c3.28,2.4,6.24,5,8.13,8.59,2.51,4.73,3.72,9.6,2.37,15.13-1.07,4.37-2.82,8-6.2,11-2.63,2.31-4.82,5.12-7.94,6.87-.55.31-1.08.84-1.72.44s-.58-1.06-.4-1.7c1.8-6.48.38-12.6-2.06-18.61a3.62,3.62,0,0,0-.78-1.18c-.34-.34-.84-.51-1.18,0a4.77,4.77,0,0,0-.82,1.7,18.26,18.26,0,0,1-5.82,11.21c-1.69,1.61-2.84,3.83-4.66,5.42A11.3,11.3,0,0,1,503,77.42a2.33,2.33,0,0,1-2.3,0,1.6,1.6,0,0,1-.58-2.09c1.7-5.44.3-10.38-2.39-15.11a9.37,9.37,0,0,0-1.19-1.49.81.81,0,0,0-1.46.21c-.46,1.69-.88,3.38-1.37,5.06a18.16,18.16,0,0,1-4.95,8c-1.72,1.67-3.43,3.34-5.17,5a1,1,0,0,1-1.29.18,1.81,1.81,0,0,1-.64-1.15c-.08-2.08,0-4.16-.07-6.23a13.22,13.22,0,0,0-.16-3.34c-.42-1.47-.68-3.34-2.55-3.7-1.45-.29-2.18,1.15-3,2.05-1.4,1.51-2.62,3.19-3.95,4.77a5.19,5.19,0,0,1-1.13.88,1.07,1.07,0,0,1-1.51-.65c-.1-1.43-.19-2.86-.17-4.29a7.11,7.11,0,0,0-1-4.11,1.79,1.79,0,0,0-2.87-.23c-1.16,1.51-2.1,3.2-3.67,4.37a2.07,2.07,0,0,1-1.78.46c-.91-.24-1.14-1-1.15-1.86,0-1.12-.06-2.24-.05-3.36a4.06,4.06,0,0,0-1.25-3c-.64-.65-1.34-.89-2.06-.21-1.28,1.2-2.53,2.44-3.75,3.7a8.36,8.36,0,0,1-3.94,2.6,1,1,0,0,1-1.32-1,3.43,3.43,0,0,1,.14-1.87c1-1.8.19-3.4-.33-5.06a7.39,7.39,0,0,0-3.39-3.9c-6.22-4-12.66-7.39-20.21-8.07A22,22,0,0,1,419.21,43.21Z"/><path class="cls-5" d="M394.4,24.27a5.46,5.46,0,0,1-1,1.54c-9.25,6.91-14.26,16.52-17.2,27.36-1.2,4.43-2,9-2.89,13.49a18.56,18.56,0,0,0-.07,3.34c-2.92.43-5.26-1-7.59-2.4a4.08,4.08,0,0,1-2-4.51,3.55,3.55,0,0,1,.08-.47c3-9.4,5.61-19,11.92-26.94a48.06,48.06,0,0,1,7.73-7.82C386.49,25.41,390.14,23.67,394.4,24.27Z"/><path class="cls-3" d="M297.39,43.17c.07-.13.18-.39.21-.38.33.08.25.23-.22.38Z"/><path class="cls-4" d="M569.62,1020.63c-.14.26-.22.61-.43.78a.47.47,0,0,1-.77-.28c0-.24.23-.58.45-.77S569.48,1020.22,569.62,1020.63Z"/><path class="cls-1" d="M825.31,514.74c.75,1.67,1.23,2.81,1.77,3.91,7.09,14.6,18.95,21.46,35,21.4a39.72,39.72,0,0,0,12.18-2.33c4.55-1.48,9-3.12,13.57-4.7l6.43-2.22A41.55,41.55,0,0,1,884,539.15a88,88,0,0,1-9.42,4.7,39.59,39.59,0,0,1-24.87,2,29.89,29.89,0,0,1-13.3-7.26c-5-4.64-8.9-10-10.69-16.71A16.09,16.09,0,0,1,825.31,514.74Z"/><path class="cls-1" d="M679.65,758.34c-1.2-.84-2.29-1.5-3.27-2.3-3.63-3-9.79-3-14.37.12-3.31,2.25-4.13,5.62-2.18,9.2a16.33,16.33,0,0,0,6.76,6.62c2.39,1.27,4.91,2.3,7.36,3.46.26.13.59.4.62.64.06.58-.42.78-.91.82a21,21,0,0,1-17-6c-5.69-5.6-5.39-13.39.79-18.4,4.85-3.92,10.3-4.86,16.17-2.42a10,10,0,0,1,6.27,6.76A4.51,4.51,0,0,1,679.65,758.34Z"/><path class="cls-1" d="M955.58,556.44c1.18.38,2.37.74,3.54,1.13.45.15.93.45.82.95a1.84,1.84,0,0,1-.76,1.06c-.91.58-1.9,1-2.85,1.57-.63,0-1.26-.12-1.89-.14-7.41-.33-13.39-4.7-14-14.89,0-.1.14-.21.26-.36,1.43.29,1.75,1.69,2.51,2.62C946.46,552.4,950.19,555.69,955.58,556.44Z"/><path class="cls-1" d="M760,622.81c-.68-2,.08-3.75,1.1-5.32,3.63-5.62,11.67-8.92,18.71-4.29a1.34,1.34,0,0,1,.5.75c.11.62-.4.8-.85.81-6.47.16-12,2.7-16.91,6.71C761.86,622,761.23,622.87,760,622.81Z"/><path class="cls-1" d="M640.79,761.66a1.34,1.34,0,0,0,.76.16c.27.55.54,1.1.78,1.66,0,.06-.13.26-.24.31a.49.49,0,0,1-.38-.08A2.84,2.84,0,0,1,640.79,761.66Z"/><polygon class="cls-1" points="896.03 790.47 895.74 790.29 895.98 790.52 896.03 790.47"/></g></g></svg>